<svg width="49" height="48" viewBox="0 0 49 48" fill="none" xmlns="http://www.w3.org/2000/svg">
<path fill-rule="evenodd" clip-rule="evenodd" d="M32.5 18C29.8478 18 27.3043 19.0536 25.4289 20.9289C23.5536 22.8043 22.5 25.3478 22.5 28V40H26.5V28C26.5 26.4087 27.1321 24.8826 28.2574 23.7574C29.3826 22.6321 30.9087 22 32.5 22C34.0913 22 35.6174 22.6321 36.7426 23.7574C37.8679 24.8826 38.5 26.4087 38.5 28V40H42.5V28C42.5 25.3478 41.4464 22.8043 39.5711 20.9289C37.6957 19.0536 35.1522 18 32.5 18ZM32.5 14C28.787 14 25.226 15.475 22.6005 18.1005C19.975 20.726 18.5 24.287 18.5 28V42C18.5 43.1046 19.3954 44 20.5 44H28.5C29.6046 44 30.5 43.1046 30.5 42V28C30.5 27.4696 30.7107 26.9609 31.0858 26.5858C31.4609 26.2107 31.9696 26 32.5 26C33.0304 26 33.5391 26.2107 33.9142 26.5858C34.2893 26.9609 34.5 27.4696 34.5 28V42C34.5 43.1046 35.3954 44 36.5 44H44.5C45.6046 44 46.5 43.1046 46.5 42V28C46.5 24.287 45.025 20.726 42.3995 18.1005C39.774 15.475 36.213 14 32.5 14Z" fill="#1A1A1A"/>
<path fill-rule="evenodd" clip-rule="evenodd" d="M2.5 18C2.5 16.8954 3.39543 16 4.5 16H12.5C13.6046 16 14.5 16.8954 14.5 18V42C14.5 43.1046 13.6046 44 12.5 44H4.5C3.39543 44 2.5 43.1046 2.5 42V18ZM6.5 20V40H10.5V20H6.5Z" fill="#1A1A1A"/>
<path fill-rule="evenodd" clip-rule="evenodd" d="M8.5 6C7.39543 6 6.5 6.89543 6.5 8C6.5 9.10457 7.39543 10 8.5 10C9.60457 10 10.5 9.10457 10.5 8C10.5 6.89543 9.60457 6 8.5 6ZM2.5 8C2.5 4.68629 5.18629 2 8.5 2C11.8137 2 14.5 4.68629 14.5 8C14.5 11.3137 11.8137 14 8.5 14C5.18629 14 2.5 11.3137 2.5 8Z" fill="#1A1A1A"/>
</svg>
