<svg width="49" height="48" viewBox="0 0 49 48" fill="none" xmlns="http://www.w3.org/2000/svg">
<path fill-rule="evenodd" clip-rule="evenodd" d="M36.5 6C34.2909 6 32.5 7.79086 32.5 10C32.5 12.2091 34.2909 14 36.5 14C38.7091 14 40.5 12.2091 40.5 10C40.5 7.79086 38.7091 6 36.5 6ZM28.5 10C28.5 5.58172 32.0817 2 36.5 2C40.9183 2 44.5 5.58172 44.5 10C44.5 14.4183 40.9183 18 36.5 18C32.0817 18 28.5 14.4183 28.5 10Z" fill="#1A1A1A"/>
<path fill-rule="evenodd" clip-rule="evenodd" d="M12.5 20C10.2909 20 8.5 21.7909 8.5 24C8.5 26.2091 10.2909 28 12.5 28C14.7091 28 16.5 26.2091 16.5 24C16.5 21.7909 14.7091 20 12.5 20ZM4.5 24C4.5 19.5817 8.08172 16 12.5 16C16.9183 16 20.5 19.5817 20.5 24C20.5 28.4183 16.9183 32 12.5 32C8.08172 32 4.5 28.4183 4.5 24Z" fill="#1A1A1A"/>
<path fill-rule="evenodd" clip-rule="evenodd" d="M36.5 34C34.2909 34 32.5 35.7909 32.5 38C32.5 40.2091 34.2909 42 36.5 42C38.7091 42 40.5 40.2091 40.5 38C40.5 35.7909 38.7091 34 36.5 34ZM28.5 38C28.5 33.5817 32.0817 30 36.5 30C40.9183 30 44.5 33.5817 44.5 38C44.5 42.4183 40.9183 46 36.5 46C32.0817 46 28.5 42.4183 28.5 38Z" fill="#1A1A1A"/>
<path fill-rule="evenodd" clip-rule="evenodd" d="M15.952 26.013C16.5081 25.0586 17.7326 24.7358 18.687 25.2919L32.347 33.2519C33.3013 33.808 33.6242 35.0325 33.068 35.9869C32.5119 36.9412 31.2874 37.2641 30.3331 36.7079L16.6731 28.7479C15.7187 28.1918 15.3959 26.9673 15.952 26.013Z" fill="#1A1A1A"/>
<path fill-rule="evenodd" clip-rule="evenodd" d="M33.0474 12.0119C33.6041 12.9659 33.2821 14.1906 32.3281 14.7473L18.6881 22.7073C17.7341 23.264 16.5094 22.942 15.9526 21.988C15.3959 21.034 15.718 19.8093 16.672 19.2525L30.312 11.2925C31.266 10.7358 32.4907 11.0579 33.0474 12.0119Z" fill="#1A1A1A"/>
</svg>
