<svg width="49" height="41" viewBox="0 0 49 41" fill="none" xmlns="http://www.w3.org/2000/svg">
<path fill-rule="evenodd" clip-rule="evenodd" d="M29.5512 1.70041C31.6488 0.899802 33.9417 0.762716 36.1197 1.3077C37.8518 1.74108 39.4447 2.58915 40.7654 3.77024C42.3898 3.1732 43.9304 2.36518 45.3474 1.3657L46.5002 3.00003L48.4434 3.47327C47.7583 6.28632 46.3851 8.87916 44.454 11.022C44.4837 11.3448 44.4991 11.6689 44.5002 11.9934L44.5002 12C44.5002 24.1999 38.6265 33.1501 30.1899 37.6405C21.802 42.105 11.0819 42.0556 1.52892 36.7483C0.719298 36.2986 0.324407 35.3517 0.574504 34.46C0.824601 33.5682 1.65425 32.9648 2.5797 33.0016C5.95332 33.1358 9.29295 32.465 12.3297 31.066C9.32337 29.2109 7.15905 27.0085 5.65432 24.6326C3.64705 21.4633 2.88931 18.1058 2.75227 15.0908C2.61562 12.0846 3.09316 9.37783 3.59516 7.43677C3.84736 6.46158 4.10904 5.66704 4.31076 5.10909C4.41174 4.8298 4.49803 4.60886 4.56109 4.45319C4.59263 4.37533 4.61839 4.31372 4.63732 4.26921L4.66046 4.21536L4.66637 4.20185C4.68046 4.16949 4.69545 4.1374 4.71135 4.1056L6.50021 5.00003L8.13692 3.85061C9.968 6.45797 12.4155 8.57201 15.2614 10.0045C17.5251 11.1439 19.985 11.8239 22.4996 12.0129C22.4849 9.79354 23.1443 7.62135 24.3914 5.78415C25.6525 3.92654 27.4536 2.50103 29.5512 1.70041ZM7.3095 9.08725C6.94212 10.69 6.64875 12.7225 6.74814 14.9092C6.8611 17.3942 7.47836 20.0368 9.03359 22.4924C10.5808 24.9354 13.1323 27.3145 17.3125 29.1724C17.9761 29.4673 18.4277 30.0988 18.4923 30.8221C18.5569 31.5455 18.2243 32.247 17.6235 32.6548C15.4016 34.163 12.9686 35.2977 10.4204 36.0314C16.7607 37.6467 23.1142 36.8753 28.3105 34.1095C35.3732 30.3504 40.4991 22.8017 40.5002 12.0034C40.4986 11.5712 40.4569 11.1401 40.3758 10.7155C40.2504 10.0598 40.4605 9.38478 40.9359 8.91602C41.3814 8.47664 41.794 8.00835 42.1716 7.51503C41.7186 7.68214 41.2601 7.83559 40.7969 7.97509C40.0436 8.20192 39.2273 7.96609 38.7111 7.37251C37.7754 6.29668 36.532 5.53415 35.1488 5.18807C33.7657 4.84199 32.3096 4.92904 30.9775 5.43746C29.6455 5.94588 28.5017 6.85113 27.7009 8.03078C26.9001 9.21043 26.4809 10.6076 26.5 12.0332L26.5004 12.06H26.5002V14.06C26.5002 15.1444 25.6361 16.0312 24.552 16.0594C20.7076 16.159 16.8982 15.3064 13.463 13.5774C11.1719 12.4242 9.0947 10.905 7.3095 9.08725Z" fill="#1A1A1A"/>
</svg>
