<svg width="43" height="43" viewBox="0 0 43 43" fill="none" xmlns="http://www.w3.org/2000/svg">
<path d="M41.28 0H1.72C0.768625 0 0 0.768625 0 1.72V41.28C0 42.2314 0.768625 43 1.72 43H41.28C42.2314 43 43 42.2314 43 41.28V1.72C43 0.768625 42.2314 0 41.28 0ZM39.56 39.56H29.6646V26.3483H35.2546L36.0931 19.8606H29.6646V15.7165C29.6646 13.8352 30.186 12.556 32.8789 12.556H36.3135V6.751C35.7169 6.67038 33.6798 6.493 31.304 6.493C26.3483 6.493 22.9566 9.51912 22.9566 15.0715V19.8552H17.3559V26.3429H22.962V39.56H3.44V3.44H39.56V39.56Z" fill="black"/>
</svg>
