<svg width="43" height="43" viewBox="0 0 43 43" fill="none" xmlns="http://www.w3.org/2000/svg">
<path d="M21.4942 10.4684C15.3896 10.4684 10.4628 15.3953 10.4628 21.5C10.4628 27.6047 15.3896 32.5316 21.4942 32.5316C27.5989 32.5316 32.5256 27.6047 32.5256 21.5C32.5256 15.3953 27.5989 10.4684 21.4942 10.4684ZM21.4942 28.6697C17.5464 28.6697 14.3246 25.4479 14.3246 21.5C14.3246 17.5521 17.5464 14.3303 21.4942 14.3303C25.4421 14.3303 28.6638 17.5521 28.6638 21.5C28.6638 25.4479 25.4421 28.6697 21.4942 28.6697ZM32.9774 7.44563C31.5521 7.44563 30.4011 8.59666 30.4011 10.022C30.4011 11.4473 31.5521 12.5984 32.9774 12.5984C34.4027 12.5984 35.5537 11.4527 35.5537 10.022C35.5541 9.68354 35.4878 9.34833 35.3585 9.03556C35.2291 8.72279 35.0394 8.4386 34.8001 8.19928C34.5608 7.95996 34.2766 7.7702 33.9638 7.64088C33.651 7.51155 33.3158 7.4452 32.9774 7.44563ZM42.9976 21.5C42.9976 18.531 43.0245 15.5889 42.8578 12.6253C42.691 9.18293 41.9058 6.12786 39.3886 3.61066C36.8661 1.08808 33.8164 0.308182 30.3742 0.141444C27.4052 -0.0252934 24.4632 0.00159984 21.4996 0.00159984C18.5306 0.00159984 15.5886 -0.0252934 12.625 0.141444C9.18276 0.308182 6.12775 1.09346 3.6106 3.61066C1.08806 6.13324 0.308176 9.18293 0.141442 12.6253C-0.0252929 15.5943 0.00159981 18.5364 0.00159981 21.5C0.00159981 24.4636 -0.0252929 27.4111 0.141442 30.3747C0.308176 33.8171 1.09344 36.8721 3.6106 39.3893C6.13313 41.9119 9.18276 42.6918 12.625 42.8586C15.594 43.0253 18.536 42.9984 21.4996 42.9984C24.4685 42.9984 27.4106 43.0253 30.3742 42.8586C33.8164 42.6918 36.8715 41.9065 39.3886 39.3893C41.9111 36.8668 42.691 33.8171 42.8578 30.3747C43.0299 27.4111 42.9976 24.469 42.9976 21.5ZM38.2645 34.1828C37.8719 35.1617 37.3985 35.8932 36.6402 36.6462C35.8818 37.4046 35.1557 37.8779 34.1768 38.2706C31.3477 39.3947 24.6299 39.1419 21.4942 39.1419C18.3585 39.1419 11.6354 39.3947 8.80626 38.276C7.82737 37.8833 7.09589 37.41 6.34289 36.6516C5.58452 35.8932 5.11121 35.1671 4.71857 34.1882C3.59984 31.3537 3.85263 24.6357 3.85263 21.5C3.85263 18.3643 3.59984 11.641 4.71857 8.8118C5.11121 7.83289 5.58452 7.1014 6.34289 6.34839C7.10126 5.59538 7.82737 5.11668 8.80626 4.72404C11.6354 3.60528 18.3585 3.85808 21.4942 3.85808C24.6299 3.85808 31.3531 3.60528 34.1822 4.72404C35.1611 5.11668 35.8926 5.59 36.6456 6.34839C37.4039 7.10678 37.8772 7.83289 38.2699 8.8118C39.3886 11.641 39.1358 18.3643 39.1358 21.5C39.1358 24.6357 39.3886 31.3537 38.2645 34.1828Z" fill="black"/>
</svg>
