<svg width="43" height="43" viewBox="0 0 43 43" fill="none" xmlns="http://www.w3.org/2000/svg">
<path d="M39.5439 0H3.45613C1.548 0 0 1.548 0 3.45613V39.5439C0 41.452 1.548 43 3.45613 43H39.5439C41.452 43 43 41.452 43 39.5439V3.45613C43 1.548 41.452 0 39.5439 0ZM39.5439 39.56C15.4746 39.5546 3.44 39.5493 3.44 39.5439C3.44537 15.4746 3.45075 3.44 3.45613 3.44C27.5254 3.44537 39.56 3.45075 39.56 3.45613C39.5546 27.5254 39.5493 39.56 39.5439 39.56ZM6.37475 16.1196H12.7549V36.6414H6.37475V16.1196ZM9.5675 13.3139C11.6046 13.3139 13.2655 11.6584 13.2655 9.61588C13.2655 9.13025 13.1698 8.64937 12.984 8.20071C12.7982 7.75205 12.5258 7.34439 12.1824 7.00099C11.839 6.6576 11.4313 6.38521 10.9827 6.19937C10.534 6.01353 10.0531 5.91788 9.5675 5.91788C9.08187 5.91788 8.601 6.01353 8.15234 6.19937C7.70368 6.38521 7.29601 6.6576 6.95262 7.00099C6.60923 7.34439 6.33684 7.75205 6.15099 8.20071C5.96515 8.64937 5.8695 9.13025 5.8695 9.61588C5.86412 11.6584 7.51963 13.3139 9.5675 13.3139ZM23.1286 26.488C23.1286 23.8113 23.6392 21.2205 26.9556 21.2205C30.2236 21.2205 30.272 24.2789 30.272 26.66V36.6414H36.6468V25.3861C36.6468 19.8606 35.4535 15.609 28.9981 15.609C25.8967 15.609 23.8166 17.3129 22.962 18.9254H22.876V16.1196H16.7539V36.6414H23.1286V26.488Z" fill="black"/>
</svg>
