<svg width="40" height="37" viewBox="0 0 40 37" fill="none" xmlns="http://www.w3.org/2000/svg">
<path d="M12.2357 36.344H12.0585C8.48824 36.3119 4.96959 35.4663 1.75734 33.8683C1.16647 33.5837 0.679951 33.1127 0.369023 32.5241C0.0580944 31.9356 -0.0609179 31.2605 0.0294079 30.5976C0.127644 29.9302 0.429021 29.3117 0.890511 28.8304C1.352 28.3491 1.95001 28.0296 2.59916 27.9175C4.58986 27.6452 6.50493 26.9572 8.22603 25.896C5.23794 23.5008 2.93755 20.3213 1.56864 16.6946C0.199735 13.0679 -0.186692 9.12905 0.450316 5.29547C0.536686 4.68825 0.791394 4.11925 1.18413 3.65619C1.57687 3.19313 2.09109 2.8555 2.66562 2.68349C3.22457 2.50351 3.82278 2.49582 4.38596 2.66137C4.94913 2.82693 5.45248 3.15843 5.8335 3.61472C7.12725 5.35403 8.75304 6.80488 10.6117 7.87875C12.4704 8.95262 14.5229 9.627 16.6442 9.86076C16.7455 7.18485 17.8671 4.65659 19.7678 2.81977C20.7168 1.88803 21.8372 1.15926 23.0637 0.675921C24.2902 0.192584 25.5983 -0.0356516 26.9117 0.0045135C28.2251 0.0446786 29.5176 0.352442 30.7138 0.909868C31.91 1.46729 32.9861 2.26324 33.8793 3.25131C34.112 3.46224 34.4011 3.59667 34.7092 3.63716C35.0173 3.67766 35.3301 3.62237 35.6072 3.47844C36.1354 3.22303 36.7235 3.12688 37.303 3.20122C37.8825 3.27556 38.4294 3.51731 38.88 3.89828C39.3305 4.27925 39.6661 4.78372 39.8476 5.35283C40.029 5.92195 40.0489 6.53224 39.9049 7.1125C39.3939 9.27048 38.4258 11.2867 37.0693 13.0178C36.7703 19.4791 33.9919 25.5571 29.34 29.9267C24.688 34.2963 18.5397 36.603 12.2357 36.344ZM12.2357 31.8014H12.413C14.9886 31.8922 17.5563 31.4579 19.967 30.5237C22.3777 29.5895 24.5836 28.174 26.4567 26.3591C28.3299 24.5443 29.833 22.3663 30.879 19.9514C31.9249 17.5365 32.493 14.9327 32.5501 12.291C32.5867 11.5671 32.8778 10.8812 33.3697 10.3604C33.9101 9.65917 34.3708 8.89718 34.7432 8.08915C33.9452 8.09071 33.1558 7.91955 32.4266 7.58687C31.6975 7.25419 31.0451 6.76748 30.512 6.15856C29.9994 5.63742 29.3905 5.22637 28.721 4.94947C28.0515 4.67257 27.3349 4.53539 26.6131 4.54595C25.884 4.52662 25.1584 4.65511 24.4779 4.92405C23.7974 5.193 23.1754 5.59709 22.6477 6.11313C21.9356 6.80588 21.4135 7.6782 21.1336 8.64281C20.8537 9.60743 20.8258 10.6305 21.0526 11.6096L21.6286 14.1989L19.0367 14.3806C16.3808 14.6027 13.7095 14.2302 11.2079 13.2889C8.70623 12.3477 6.43404 10.8602 4.54863 8.92953C4.46777 11.9194 5.19727 14.8738 6.65604 17.4641C8.1148 20.0543 10.2457 22.1791 12.8117 23.602L14.9163 24.8285L13.5206 26.8727C12.0113 28.9021 9.9433 30.4211 7.58359 31.2336C9.09734 31.6226 10.6531 31.8133 12.2136 31.8014H12.2357Z" fill="black"/>
</svg>
