<svg width="113" height="132" viewBox="0 0 113 132" fill="none" xmlns="http://www.w3.org/2000/svg">
<path d="M112.796 47.1276L95.2035 34.9825C95.1407 34.9388 95.0681 34.9112 94.9921 34.9022C94.9161 34.8933 94.839 34.9033 94.7678 34.9313C94.6966 34.9593 94.6334 35.0045 94.5839 35.0628C94.5344 35.1212 94.5001 35.1908 94.484 35.2656L91.1094 50.2741C91.0934 50.3477 91.0956 50.424 91.1158 50.4966C91.136 50.5691 91.1735 50.6357 91.2251 50.6905C91.2767 50.7453 91.3409 50.7867 91.4122 50.8112C91.4834 50.8357 91.5595 50.8425 91.6339 50.831L112.624 47.9676C112.714 47.9501 112.797 47.9063 112.862 47.8418C112.928 47.7772 112.972 47.6948 112.991 47.6049C113.009 47.515 113 47.4217 112.966 47.3367C112.931 47.2518 112.872 47.179 112.796 47.1276Z" fill="#FD0054"/>
<path d="M36.8467 96.4457L10.4255 131.67C10.3596 131.759 10.264 131.822 10.1558 131.846C10.0476 131.871 9.93418 131.856 9.83595 131.805C9.73773 131.753 9.66126 131.668 9.62039 131.565C9.57952 131.462 9.57697 131.347 9.61319 131.243L18.4326 104.409C18.4523 104.35 18.4838 104.295 18.5253 104.248C18.5667 104.201 18.6173 104.162 18.674 104.136L36.2897 95.7495C36.3826 95.7111 36.4855 95.7038 36.5829 95.7289C36.6803 95.7539 36.7669 95.8099 36.8297 95.8884C36.8926 95.9669 36.9282 96.0637 36.9312 96.1642C36.9343 96.2647 36.9046 96.3635 36.8467 96.4457Z" fill="#FD0054"/>
<path d="M92.4741 35.2703L83.715 70.9582C83.692 71.0531 83.6479 71.1416 83.5861 71.2171C83.5242 71.2927 83.4461 71.3533 83.3576 71.3945L19.8344 101.267C19.7192 101.32 19.5912 101.338 19.4658 101.32C19.3404 101.302 19.2229 101.248 19.1274 101.165C19.0319 101.082 18.9624 100.973 18.9273 100.851C18.8921 100.729 18.8928 100.6 18.9293 100.479L28.1804 71.0511C28.2409 70.8586 28.3426 70.6816 28.4783 70.5323C28.6141 70.383 28.7806 70.265 28.9665 70.1864C29.1524 70.1078 29.3531 70.0706 29.5548 70.0772C29.7565 70.0839 29.9543 70.1343 30.1346 70.225C34.224 72.3134 40.4673 74.1047 41.7948 74.476C42.129 74.5734 44.6774 75.367 44.9234 75.4413H44.9652C52.8562 77.2976 60.2831 77.7617 65.8301 73.1209C68.0233 71.2678 69.9041 69.0741 71.4003 66.6237C76.0421 58.2702 75.1137 53.3138 75.1137 41.5632C75.1137 41.1827 75.1137 40.8114 75.1137 40.4494C75.1056 40.3034 75.147 40.1589 75.2312 40.0393C75.3155 39.9197 75.4376 39.832 75.5779 39.7904L77.6528 39.1036L91.6757 34.5092C91.7824 34.483 91.894 34.4841 92.0003 34.5124C92.1065 34.5407 92.2038 34.5952 92.2834 34.6711C92.3629 34.7469 92.4221 34.8416 92.4554 34.9463C92.4888 35.051 92.4952 35.1624 92.4741 35.2703Z" fill="#A80038"/>
<path d="M72.8021 52.0422C72.7696 58.7807 70.7365 64.5168 66.5171 68.4244C54.0399 79.9615 27.1314 71.1671 6.41498 48.7751C4.14978 46.3247 2.05168 43.814 0.129971 41.2662L0 41.0992C0.366703 41.424 0.733405 41.7396 1.10011 42.0552L1.16045 42.1016C8.71267 48.557 16.678 53.2953 24.2256 56.0473C44.8816 64.9716 64.4236 64.4008 72.0362 53.2628C72.3147 52.8544 72.5654 52.4413 72.8021 52.0422Z" fill="#FD0054"/>
<path d="M72.8021 52.0422C72.5654 52.4506 72.3147 52.8544 72.0455 53.2488C64.4236 64.3868 44.8816 64.9716 24.2349 56.0333C35.8022 60.2565 46.3809 59.8249 52.9537 53.7454C59.1645 48.0047 60.6266 38.31 57.9808 27.2602C56.2726 20.1273 52.8748 12.4328 47.8849 4.86823C46.8033 3.24858 45.6568 1.61501 44.4406 0C46.9422 2.20667 49.3297 4.5394 51.5937 6.98909C65.3009 21.8119 72.8764 38.853 72.8021 52.0422Z" fill="#A80038"/>
</svg>
