<svg width="840" height="587" viewBox="0 0 840 587" fill="none" xmlns="http://www.w3.org/2000/svg">
<path opacity="0.1" d="M291.88 579.633C339.886 553.067 394.724 544.577 448.317 555.963C524.259 572.109 619.704 565.78 638.191 441.222C669.765 228.495 537.452 172.348 537.452 172.348C537.452 172.348 449.463 164.98 397.434 136.925C323.529 97.0606 239.054 91.9841 164.775 125.713C117.274 147.265 78.1566 177.275 71.4731 218.479C52.7866 333.713 83.476 397.203 26.0649 434.819C-31.3462 472.435 17.7183 575.709 61.7312 572.134C105.744 568.558 205.2 529.335 243.956 574.768C257.721 590.882 275.137 588.902 291.88 579.633Z" fill="#FD0054"/>
<path opacity="0.1" d="M519.65 196.958H321.573V210.662H519.65V196.958Z" fill="#FD0054"/>
<path opacity="0.1" d="M519.65 256.132H321.573V269.835H519.65V256.132Z" fill="#FD0054"/>
<path opacity="0.1" d="M519.65 317.798H321.573V331.501H519.65V317.798Z" fill="#FD0054"/>
<path opacity="0.1" d="M351.471 161.454H339.014V196.958H351.471V161.454Z" fill="#FD0054"/>
<path opacity="0.1" d="M351.471 167.06H339.014V169.552H351.471V167.06Z" fill="#FD0054"/>
<path opacity="0.1" d="M351.471 186.369H339.014V188.861H351.471V186.369Z" fill="#FD0054"/>
<path opacity="0.1" d="M370.158 161.454H357.7V196.958H370.158V161.454Z" fill="#FD0054"/>
<path opacity="0.1" d="M370.158 167.06H357.7V169.552H370.158V167.06Z" fill="#FD0054"/>
<path opacity="0.1" d="M370.158 186.369H357.7V188.861H370.158V186.369Z" fill="#FD0054"/>
<path opacity="0.1" d="M388.844 161.454H376.387V196.958H388.844V161.454Z" fill="#FD0054"/>
<path opacity="0.1" d="M388.844 167.06H376.387V169.552H388.844V167.06Z" fill="#FD0054"/>
<path opacity="0.1" d="M388.844 186.369H376.387V188.861H388.844V186.369Z" fill="#FD0054"/>
<path opacity="0.1" d="M407.531 161.454H395.073V196.958H407.531V161.454Z" fill="#FD0054"/>
<path opacity="0.1" d="M407.531 167.06H395.073V169.552H407.531V167.06Z" fill="#FD0054"/>
<path opacity="0.1" d="M407.531 186.369H395.073V188.861H407.531V186.369Z" fill="#FD0054"/>
<path opacity="0.1" d="M426.217 161.454H413.76V196.958H426.217V161.454Z" fill="#FD0054"/>
<path opacity="0.1" d="M426.217 167.06H413.76V169.552H426.217V167.06Z" fill="#FD0054"/>
<path opacity="0.1" d="M426.217 186.369H413.76V188.861H426.217V186.369Z" fill="#FD0054"/>
<path opacity="0.1" d="M444.904 161.454H432.446V196.958H444.904V161.454Z" fill="#FD0054"/>
<path opacity="0.1" d="M444.904 167.06H432.446V169.552H444.904V167.06Z" fill="#FD0054"/>
<path opacity="0.1" d="M444.904 186.369H432.446V188.861H444.904V186.369Z" fill="#FD0054"/>
<path opacity="0.1" d="M463.59 161.454H451.133V196.958H463.59V161.454Z" fill="#FD0054"/>
<path opacity="0.1" d="M463.59 167.06H451.133V169.552H463.59V167.06Z" fill="#FD0054"/>
<path opacity="0.1" d="M463.59 186.369H451.133V188.861H463.59V186.369Z" fill="#FD0054"/>
<path opacity="0.1" d="M456.216 281.359L445.079 286.942L460.993 318.68L472.13 313.097L456.216 281.359Z" fill="#FD0054"/>
<path opacity="0.1" d="M458.732 286.375L447.595 291.958L448.712 294.186L459.848 288.602L458.732 286.375Z" fill="#FD0054"/>
<path opacity="0.1" d="M467.382 303.637L456.245 309.221L457.362 311.448L468.498 305.864L467.382 303.637Z" fill="#FD0054"/>
<path opacity="0.1" d="M351.471 221.25H339.014V256.755H351.471V221.25Z" fill="#FD0054"/>
<path opacity="0.1" d="M351.471 226.857H339.014V229.348H351.471V226.857Z" fill="#FD0054"/>
<path opacity="0.1" d="M351.471 246.166H339.014V248.658H351.471V246.166Z" fill="#FD0054"/>
<path opacity="0.1" d="M370.158 221.25H357.7V256.755H370.158V221.25Z" fill="#FD0054"/>
<path opacity="0.1" d="M370.158 226.857H357.7V229.348H370.158V226.857Z" fill="#FD0054"/>
<path opacity="0.1" d="M370.158 246.166H357.7V248.658H370.158V246.166Z" fill="#FD0054"/>
<path opacity="0.1" d="M388.844 221.25H376.387V256.755H388.844V221.25Z" fill="#FD0054"/>
<path opacity="0.1" d="M388.844 226.857H376.387V229.348H388.844V226.857Z" fill="#FD0054"/>
<path opacity="0.1" d="M388.844 246.166H376.387V248.658H388.844V246.166Z" fill="#FD0054"/>
<path opacity="0.1" d="M466.705 221.25H454.247V256.755H466.705V221.25Z" fill="#FD0054"/>
<path opacity="0.1" d="M466.705 226.857H454.247V229.348H466.705V226.857Z" fill="#FD0054"/>
<path opacity="0.1" d="M466.705 246.166H454.247V248.658H466.705V246.166Z" fill="#FD0054"/>
<path opacity="0.1" d="M485.391 221.25H472.934V256.755H485.391V221.25Z" fill="#FD0054"/>
<path opacity="0.1" d="M485.391 226.857H472.934V229.348H485.391V226.857Z" fill="#FD0054"/>
<path opacity="0.1" d="M485.391 246.166H472.934V248.658H485.391V246.166Z" fill="#FD0054"/>
<path opacity="0.1" d="M504.078 221.25H491.62V256.755H504.078V221.25Z" fill="#FD0054"/>
<path opacity="0.1" d="M504.078 226.857H491.62V229.348H504.078V226.857Z" fill="#FD0054"/>
<path opacity="0.1" d="M504.078 246.166H491.62V248.658H504.078V246.166Z" fill="#FD0054"/>
<path opacity="0.1" d="M351.471 282.293H339.014V317.797H351.471V282.293Z" fill="#FD0054"/>
<path opacity="0.1" d="M351.471 287.899H339.014V290.39H351.471V287.899Z" fill="#FD0054"/>
<path opacity="0.1" d="M351.471 307.208H339.014V309.7H351.471V307.208Z" fill="#FD0054"/>
<path opacity="0.1" d="M370.158 282.293H357.7V317.797H370.158V282.293Z" fill="#FD0054"/>
<path opacity="0.1" d="M370.158 287.899H357.7V290.39H370.158V287.899Z" fill="#FD0054"/>
<path opacity="0.1" d="M370.158 307.208H357.7V309.7H370.158V307.208Z" fill="#FD0054"/>
<path opacity="0.1" d="M388.844 282.293H376.387V317.797H388.844V282.293Z" fill="#FD0054"/>
<path opacity="0.1" d="M388.844 287.899H376.387V290.39H388.844V287.899Z" fill="#FD0054"/>
<path opacity="0.1" d="M388.844 307.208H376.387V309.7H388.844V307.208Z" fill="#FD0054"/>
<path opacity="0.1" d="M407.531 282.293H395.073V317.797H407.531V282.293Z" fill="#FD0054"/>
<path opacity="0.1" d="M407.531 287.899H395.073V290.39H407.531V287.899Z" fill="#FD0054"/>
<path opacity="0.1" d="M407.531 307.208H395.073V309.7H407.531V307.208Z" fill="#FD0054"/>
<path opacity="0.1" d="M426.217 282.293H413.76V317.797H426.217V282.293Z" fill="#FD0054"/>
<path opacity="0.1" d="M426.217 287.899H413.76V290.39H426.217V287.899Z" fill="#FD0054"/>
<path opacity="0.1" d="M426.217 307.208H413.76V309.7H426.217V307.208Z" fill="#FD0054"/>
<path opacity="0.1" d="M444.904 282.293H432.446V317.797H444.904V282.293Z" fill="#FD0054"/>
<path opacity="0.1" d="M444.904 287.899H432.446V290.39H444.904V287.899Z" fill="#FD0054"/>
<path opacity="0.1" d="M444.904 307.208H432.446V309.7H444.904V307.208Z" fill="#FD0054"/>
<path opacity="0.1" d="M482.277 164.618V196.958H469.819V162.245C473.988 162.98 478.141 163.771 482.277 164.618Z" fill="#FD0054"/>
<path opacity="0.1" d="M482.277 167.06H469.819V169.552H482.277V167.06Z" fill="#FD0054"/>
<path opacity="0.1" d="M482.277 186.369H469.819V188.861H482.277V186.369Z" fill="#FD0054"/>
<path opacity="0.1" d="M500.963 168.942V196.971H488.506V165.952C490.125 166.307 491.738 166.68 493.352 167.06C495.901 167.658 498.439 168.285 500.963 168.942Z" fill="#FD0054"/>
<path opacity="0.1" d="M500.963 168.941V169.564H488.506V167.073H493.352C495.901 167.662 498.439 168.285 500.963 168.941Z" fill="#FD0054"/>
<path opacity="0.1" d="M500.963 186.369H488.506V188.861H500.963V186.369Z" fill="#FD0054"/>
<g opacity="0.1">
<path opacity="0.1" d="M414.003 243.849C414.003 243.849 410.228 242.566 408.397 245.898C407.918 246.8 407.674 247.808 407.688 248.83C407.703 249.851 407.974 250.852 408.478 251.741C409.674 253.896 412.134 256.724 416.793 256.45C420.749 256.238 422.063 253.223 422.399 250.414C422.528 249.363 422.387 248.297 421.99 247.316C421.592 246.334 420.951 245.471 420.127 244.806C419.303 244.142 418.323 243.698 417.279 243.518C416.236 243.337 415.164 243.425 414.165 243.774L414.003 243.849Z" fill="#FD0054"/>
<path opacity="0.1" d="M409.3 252.046C408.796 251.158 408.525 250.156 408.511 249.135C408.496 248.114 408.74 247.106 409.219 246.204C411.038 242.877 414.825 244.154 414.825 244.154L415.018 244.086C416.459 243.564 418.043 243.6 419.459 244.185C418.677 243.72 417.802 243.434 416.896 243.347C415.99 243.261 415.076 243.377 414.221 243.687L414.028 243.756C414.028 243.756 410.253 242.472 408.422 245.805C407.943 246.707 407.699 247.715 407.713 248.737C407.728 249.758 407.999 250.759 408.503 251.648C409.439 253.432 410.942 254.854 412.776 255.69C411.305 254.816 410.103 253.556 409.3 252.046Z" fill="#FD0054"/>
<path opacity="0.2" d="M412.053 245.45C412.053 245.45 413.455 246.553 416.856 245.45H412.053Z" fill="#FD0054"/>
<path opacity="0.1" d="M411.748 237.446C411.748 237.446 414.146 243.949 413.947 245.649L415.846 245.45C415.846 245.45 412.645 239.75 413.448 237.446H411.748Z" fill="#FD0054"/>
<path opacity="0.2" d="M411.748 237.446C411.748 237.446 414.146 243.949 413.947 245.649L415.846 245.45C415.846 245.45 412.645 239.75 413.448 237.446H411.748Z" fill="#FD0054"/>
<path opacity="0.1" d="M421.552 237.994C421.552 237.994 417.771 236.063 416.083 237.657C414.395 239.252 414.134 243.332 414.134 243.332C414.134 243.332 420.294 244.166 421.552 237.994Z" fill="#FD0054"/>
<path opacity="0.1" d="M421.552 237.994C421.552 237.994 417.771 236.063 416.083 237.657C414.395 239.252 414.134 243.332 414.134 243.332C414.134 243.332 420.294 244.166 421.552 237.994Z" fill="#FD0054"/>
<path opacity="0.1" d="M414.127 243.332C414.127 243.332 415.118 238.598 421.546 237.987L414.127 243.332Z" fill="#FD0054"/>
</g>
<g opacity="0.1">
<path opacity="0.1" d="M493.732 305.514C493.732 305.514 489.957 304.231 488.126 307.563C487.647 308.465 487.403 309.474 487.417 310.495C487.432 311.516 487.703 312.517 488.207 313.406C489.403 315.561 491.863 318.389 496.522 318.115C500.478 317.903 501.792 314.888 502.128 312.079C502.257 311.028 502.116 309.962 501.719 308.981C501.321 307.999 500.68 307.136 499.856 306.471C499.032 305.807 498.052 305.363 497.008 305.183C495.965 305.002 494.893 305.09 493.894 305.439L493.732 305.514Z" fill="#FD0054"/>
<path opacity="0.1" d="M489.029 313.711C488.525 312.822 488.254 311.821 488.24 310.8C488.226 309.779 488.469 308.77 488.948 307.868C490.767 304.542 494.554 305.819 494.554 305.819L494.747 305.75C496.188 305.229 497.772 305.264 499.188 305.85C498.406 305.384 497.531 305.098 496.625 305.012C495.719 304.926 494.805 305.042 493.95 305.352L493.757 305.42C493.757 305.42 489.982 304.137 488.151 307.469C487.672 308.372 487.428 309.38 487.442 310.401C487.457 311.422 487.728 312.424 488.232 313.312C489.168 315.097 490.671 316.519 492.505 317.355C491.035 316.481 489.832 315.221 489.029 313.711Z" fill="#FD0054"/>
<path opacity="0.2" d="M491.782 307.115C491.782 307.115 493.184 308.217 496.585 307.115H491.782Z" fill="#FD0054"/>
<path opacity="0.1" d="M491.477 299.111C491.477 299.111 493.875 305.614 493.676 307.314L495.575 307.115C495.575 307.115 492.374 301.416 493.177 299.111H491.477Z" fill="#FD0054"/>
<path opacity="0.2" d="M491.477 299.111C491.477 299.111 493.875 305.614 493.676 307.314L495.575 307.115C495.575 307.115 492.374 301.416 493.177 299.111H491.477Z" fill="#FD0054"/>
<path opacity="0.1" d="M501.281 299.659C501.281 299.659 497.5 297.728 495.812 299.322C494.124 300.917 493.863 304.997 493.863 304.997C493.863 304.997 500.023 305.831 501.281 299.659Z" fill="#FD0054"/>
<path opacity="0.1" d="M501.281 299.659C501.281 299.659 497.5 297.728 495.812 299.322C494.124 300.917 493.863 304.997 493.863 304.997C493.863 304.997 500.023 305.831 501.281 299.659Z" fill="#FD0054"/>
<path opacity="0.1" d="M493.856 304.997C493.856 304.997 494.847 300.263 501.275 299.652L493.856 304.997Z" fill="#FD0054"/>
</g>
<path opacity="0.1" d="M619.778 495.836C638.355 495.836 653.414 490.482 653.414 483.877C653.414 477.272 638.355 471.917 619.778 471.917C601.202 471.917 586.143 477.272 586.143 483.877C586.143 490.482 601.202 495.836 619.778 495.836Z" fill="black"/>
<path d="M619.803 483.977C619.803 483.977 638.994 418.829 616.203 370.874C606.642 350.748 603.465 328.156 607.881 306.318C609.995 295.959 613.054 285.815 617.019 276.015" stroke="#535461" stroke-width="2" stroke-miterlimit="10"/>
<path d="M602.842 245.705C602.842 253.691 617.299 276.849 617.299 276.849C617.299 276.849 631.756 253.697 631.756 245.705C631.756 241.871 630.233 238.194 627.522 235.482C624.811 232.771 621.134 231.248 617.299 231.248C613.465 231.248 609.788 232.771 607.077 235.482C604.365 238.194 602.842 241.871 602.842 245.705Z" fill="#FD0054"/>
<path d="M578.942 289.93C583.302 296.632 608 308.212 608 308.212C608 308.212 607.551 280.917 603.21 274.215C602.178 272.62 600.842 271.243 599.278 270.165C597.714 269.086 595.953 268.326 594.096 267.927C592.238 267.529 590.321 267.501 588.452 267.844C586.584 268.187 584.801 268.894 583.206 269.926C581.611 270.958 580.234 272.294 579.156 273.858C578.077 275.421 577.317 277.182 576.919 279.04C576.52 280.897 576.492 282.815 576.835 284.684C577.178 286.552 577.885 288.335 578.917 289.93H578.942Z" fill="#FD0054"/>
<path d="M579.97 365.511C587.102 369.105 614.284 366.619 614.284 366.619C614.284 366.619 600.12 343.286 592.988 339.692C591.293 338.837 589.446 338.325 587.552 338.184C585.659 338.043 583.757 338.276 581.953 338.871C580.15 339.465 578.482 340.409 577.043 341.648C575.605 342.887 574.424 344.397 573.57 346.092C572.715 347.788 572.202 349.635 572.061 351.528C571.92 353.421 572.154 355.324 572.748 357.127C573.342 358.93 574.286 360.599 575.525 362.037C576.764 363.476 578.275 364.656 579.97 365.511Z" fill="#FD0054"/>
<path d="M593.673 422.517C600.095 427.263 627.309 429.412 627.309 429.412C627.309 429.412 617.293 404.017 610.871 399.271C609.345 398.141 607.611 397.324 605.769 396.865C603.926 396.406 602.012 396.314 600.134 396.595C598.256 396.875 596.452 397.523 594.825 398.501C593.197 399.479 591.779 400.768 590.649 402.295C589.52 403.821 588.703 405.555 588.243 407.397C587.784 409.239 587.692 411.154 587.973 413.032C588.254 414.91 588.902 416.714 589.88 418.341C590.858 419.969 592.147 421.387 593.673 422.517Z" fill="#FD0054"/>
<path d="M638.359 309.756C632.635 315.318 605.969 321.08 605.969 321.08C605.969 321.08 612.503 294.576 618.227 289.014C619.587 287.68 621.197 286.629 622.964 285.919C624.732 285.21 626.622 284.857 628.526 284.88C630.43 284.903 632.311 285.302 634.061 286.055C635.81 286.807 637.394 287.898 638.721 289.264C640.048 290.63 641.092 292.245 641.792 294.016C642.493 295.787 642.837 297.678 642.805 299.583C642.772 301.487 642.364 303.366 641.603 305.112C640.842 306.857 639.744 308.436 638.371 309.756H638.359Z" fill="#FD0054"/>
<path d="M653.47 376.629C646.338 380.223 619.155 377.738 619.155 377.738C619.155 377.738 633.32 354.404 640.452 350.81C642.147 349.956 643.994 349.443 645.887 349.302C647.781 349.161 649.683 349.394 651.486 349.989C653.29 350.583 654.958 351.527 656.397 352.766C657.835 354.005 659.015 355.515 659.87 357.211C660.725 358.906 661.237 360.753 661.378 362.646C661.519 364.539 661.286 366.442 660.692 368.245C660.097 370.048 659.154 371.717 657.915 373.155C656.676 374.594 655.165 375.774 653.47 376.629Z" fill="#FD0054"/>
<path d="M659.288 443.645C652.866 448.391 625.652 450.54 625.652 450.54C625.652 450.54 635.668 425.145 642.09 420.399C643.615 419.245 645.353 418.404 647.205 417.926C649.056 417.449 650.984 417.343 652.877 417.615C654.77 417.888 656.59 418.533 658.231 419.514C659.873 420.494 661.304 421.791 662.441 423.329C663.578 424.866 664.398 426.614 664.855 428.471C665.312 430.328 665.396 432.257 665.102 434.146C664.808 436.036 664.143 437.848 663.144 439.479C662.144 441.109 660.832 442.525 659.282 443.645H659.288Z" fill="#FD0054"/>
<path opacity="0.1" d="M536.063 461.453C554.639 461.453 569.699 456.099 569.699 449.494C569.699 442.889 554.639 437.534 536.063 437.534C517.486 437.534 502.427 442.889 502.427 449.494C502.427 456.099 517.486 461.453 536.063 461.453Z" fill="black"/>
<path d="M534.699 451.195C534.699 451.195 543.687 420.673 533.011 398.206C528.472 388.811 527.104 378.197 529.111 367.959C530.103 363.106 531.538 358.354 533.397 353.763" stroke="#535461" stroke-width="2" stroke-miterlimit="10"/>
<path d="M526.751 339.561C526.751 343.298 533.521 354.149 533.521 354.149C533.521 354.149 540.292 343.298 540.292 339.561C540.292 337.764 539.579 336.041 538.308 334.771C537.038 333.501 535.315 332.787 533.518 332.787C531.722 332.787 529.999 333.501 528.728 334.771C527.458 336.041 526.744 337.764 526.744 339.561H526.751Z" fill="#FD0054"/>
<path d="M515.558 360.278C517.588 363.393 529.174 368.843 529.174 368.843C529.174 368.843 528.962 356.055 526.931 352.916C526.448 352.169 525.822 351.525 525.09 351.02C524.357 350.515 523.533 350.159 522.663 349.973C521.793 349.787 520.895 349.774 520.02 349.934C519.145 350.095 518.31 350.427 517.563 350.91C516.816 351.394 516.172 352.019 515.667 352.752C515.162 353.484 514.806 354.309 514.62 355.179C514.434 356.049 514.421 356.947 514.582 357.822C514.743 358.697 515.074 359.532 515.558 360.278Z" fill="#FD0054"/>
<path d="M516.043 395.689C519.382 397.371 532.12 396.212 532.12 396.212C532.12 396.212 525.486 385.281 522.154 383.593C521.36 383.192 520.494 382.952 519.607 382.886C518.72 382.82 517.829 382.93 516.984 383.208C515.278 383.771 513.865 384.988 513.057 386.592C512.248 388.196 512.11 390.056 512.672 391.762C513.235 393.468 514.452 394.88 516.056 395.689H516.043Z" fill="#FD0054"/>
<path d="M522.447 422.398C525.455 424.622 538.206 425.631 538.206 425.631C538.206 425.631 533.509 413.734 530.507 411.51C529.791 410.981 528.979 410.598 528.116 410.384C527.252 410.169 526.355 410.126 525.476 410.258C524.596 410.39 523.751 410.694 522.988 411.152C522.226 411.611 521.562 412.215 521.033 412.93C520.504 413.646 520.121 414.458 519.906 415.321C519.691 416.184 519.649 417.082 519.781 417.961C519.913 418.841 520.216 419.686 520.675 420.449C521.133 421.211 521.738 421.875 522.453 422.404L522.447 422.398Z" fill="#FD0054"/>
<path d="M543.394 369.572C540.71 372.176 528.208 374.879 528.208 374.879C528.208 374.879 531.273 362.459 533.951 359.855C535.24 358.604 536.973 357.916 538.769 357.942C540.565 357.968 542.277 358.707 543.528 359.996C544.779 361.284 545.468 363.017 545.441 364.813C545.415 366.609 544.677 368.321 543.388 369.572H543.394Z" fill="#FD0054"/>
<path d="M550.489 400.903C547.15 402.584 534.412 401.426 534.412 401.426C534.412 401.426 541.046 390.494 544.378 388.806C545.982 387.997 547.842 387.859 549.548 388.422C551.254 388.984 552.667 390.201 553.476 391.805C554.284 393.409 554.422 395.269 553.86 396.975C553.298 398.681 552.08 400.094 550.476 400.903H550.489Z" fill="#FD0054"/>
<path d="M553.186 432.277C550.177 434.501 537.427 435.51 537.427 435.51C537.427 435.51 542.123 423.613 545.126 421.389C545.841 420.86 546.653 420.477 547.516 420.262C548.379 420.046 549.276 420.003 550.156 420.134C551.035 420.266 551.881 420.569 552.643 421.027C553.406 421.485 554.071 422.088 554.6 422.803C555.129 423.518 555.512 424.33 555.728 425.193C555.943 426.056 555.986 426.953 555.855 427.833C555.724 428.713 555.42 429.558 554.962 430.321C554.504 431.083 553.901 431.748 553.186 432.277Z" fill="#FD0054"/>
<path d="M709.044 511.913L516.174 409.605H475.73L486.195 322.501C486.424 320.594 486.27 318.661 485.743 316.814C485.216 314.968 484.325 313.245 483.124 311.747C481.923 310.248 480.435 309.005 478.747 308.089C477.059 307.173 475.206 306.602 473.295 306.411L472.211 306.455H472.105L324.974 308.691C321.208 308.425 317.47 309.51 314.431 311.75C311.392 313.991 309.251 317.242 308.393 320.918L301.541 370.973L300.551 369.46L300.071 368.731C303.69 366.376 296.552 352.38 290.504 341.947L289.955 341C293.792 339.399 298.053 337.886 298.053 337.886L288.616 331.993C288.616 331.993 279.933 319.424 270.69 309.227C276.919 270.222 263.763 225.138 263.608 224.515L263.259 224.608C265.085 221.651 266.047 218.242 266.037 214.767C266.038 212.119 265.477 209.502 264.39 207.088C263.303 204.674 261.716 202.519 259.733 200.764C259.366 197.426 258.836 193.987 258.076 190.368C257.939 189.746 257.796 189.054 257.64 188.394C256.93 185.279 256.214 182.165 255.273 179.113C254.621 176.937 253.812 174.811 252.85 172.753C247.936 162.37 237.826 154.945 226.752 152.329C221.052 150.984 215.21 153.07 209.89 152.074C207.212 151.581 204.814 149.009 202.204 147.969C198.896 146.648 195.315 146.032 191.814 145.477C187.454 144.748 182.926 144.026 178.584 144.973C171.421 146.53 165.958 152.335 161.941 158.464C157.923 164.593 154.802 171.383 149.838 176.777C146.518 180.39 142.432 183.292 139.473 187.204C135.113 192.96 133.599 200.285 132.198 207.398C130.466 216.15 128.735 225.026 128.772 233.914C128.772 235.976 128.803 238.044 128.984 240.112C129.439 245.419 130.647 250.651 130.933 255.964C130.933 256.537 130.977 257.11 130.99 257.683C130.927 267.407 128.056 276.993 125.203 286.336C124.294 289.307 123.372 292.303 122.294 295.231C116.564 295.717 111.082 296.863 106.903 299.118C91.6296 307.29 79.8757 325.515 79.8757 325.515L57.5329 346.07C57.5329 346.07 66.353 350.188 70.4702 357.245C70.6176 357.494 70.7865 357.729 70.9747 357.949L70.6509 358.696L57.5329 388.993C57.5329 388.993 65.7674 394.873 78.0881 393.696C80.0905 393.446 82.1228 393.594 84.0677 394.132C84.0677 394.506 84.0304 394.886 84.0179 395.284C83.2642 412.619 82.8656 450.603 91.8351 476.259L71.5665 499.929L31.0791 511.919L29.3163 543.063H710.221L709.044 511.913ZM125.097 395.777C126.833 396.13 128.527 396.669 130.149 397.384V419.035C129.077 411.386 127.589 403.55 125.514 397.035C125.384 396.611 125.265 396.194 125.097 395.777ZM242.006 437.441C242.006 437.366 242.006 437.292 242.006 437.217C242.031 436.461 242.133 435.71 242.311 434.975C242.564 433.835 243.127 432.788 243.937 431.947C245.438 430.446 246.989 428.833 248.54 427.083C249.495 429.547 250.874 431.826 252.614 433.816C254.607 436.04 259.061 438.039 265.314 439.846C257.591 438.647 249.811 437.845 242.006 437.441ZM292.839 434.451L272.484 440.475C262.86 438.319 256.015 435.853 253.479 433C251.706 430.955 250.329 428.598 249.418 426.049C256.681 417.627 263.745 406.297 265.364 390.825C265.408 390.42 265.439 390.002 265.476 389.579C267.684 388.324 269.77 386.864 271.705 385.219L272.073 386.078C277.546 398.523 285.287 409.84 294.901 419.452L292.839 434.451ZM262.667 225.518C264.268 231.292 275.125 272.172 269.681 308.118C266.292 304.468 262.873 301.204 259.808 299.055C259.082 298.553 258.323 298.101 257.534 297.704C256.856 291.114 256.544 284.28 256.494 277.51C256.557 269.126 257.055 260.81 257.74 252.9C258.481 244.516 259.353 236.518 259.895 228.651C260.933 227.713 261.862 226.662 262.667 225.518Z" fill="url(#paint0_linear)"/>
<path d="M252.732 235.583H247.419V198.833H252.732C256.789 198.833 260.68 200.445 263.549 203.314C266.418 206.183 268.03 210.074 268.03 214.131V220.248C268.035 222.26 267.643 224.253 266.876 226.113C266.11 227.974 264.984 229.665 263.563 231.089C262.142 232.514 260.453 233.644 258.595 234.415C256.736 235.186 254.744 235.583 252.732 235.583Z" fill="#DFE6F5"/>
<path d="M246.665 235.583H248.173C250.247 235.583 251.929 233.901 251.929 231.827V202.62C251.929 200.546 250.247 198.864 248.173 198.864H246.665C244.591 198.864 242.909 200.546 242.909 202.62V231.827C242.909 233.901 244.591 235.583 246.665 235.583Z" fill="#535461"/>
<g opacity="0.1">
<path opacity="0.1" d="M252.732 235.584H247.419V198.834H252.732C256.789 198.834 260.68 200.446 263.549 203.315C266.418 206.184 268.03 210.075 268.03 214.132V220.249C268.035 222.261 267.643 224.254 266.876 226.114C266.11 227.975 264.984 229.666 263.563 231.09C262.142 232.515 260.453 233.645 258.595 234.416C256.736 235.187 254.744 235.584 252.732 235.584Z" fill="black"/>
<path opacity="0.1" d="M246.665 235.584H248.172C250.247 235.584 251.928 233.902 251.928 231.828V202.621C251.928 200.547 250.247 198.865 248.172 198.865H246.665C244.591 198.865 242.909 200.547 242.909 202.621V231.828C242.909 233.902 244.591 235.584 246.665 235.584Z" fill="black"/>
</g>
<path d="M255.261 218.286H162.395V314.615H255.261V218.286Z" fill="#865A61"/>
<path opacity="0.1" d="M255.261 205.019H162.395V301.347H255.261V205.019Z" fill="black"/>
<path d="M252.09 298.177L246.485 338.913L243.843 358.061L242.872 365.093L234.731 380.964L219.782 410.09L190.942 413.553L140.214 342.015C140.214 342.015 113.655 291.256 154.036 295.866C176.678 298.457 182.066 278.188 182.471 259.882C182.573 250.665 181.738 241.461 179.979 232.413L220.355 252.027C219.416 256.4 218.71 260.417 218.237 264.08C216.268 279.067 217.9 288.41 221.314 294.072C230.402 309.152 252.09 298.177 252.09 298.177Z" fill="#FDC2CC"/>
<path opacity="0.1" d="M220.367 252.033C219.429 256.406 218.723 260.423 218.249 264.086C214.059 265.278 209.724 265.882 205.368 265.88C197.347 265.893 189.459 263.831 182.471 259.894C182.573 250.677 181.738 241.473 179.979 232.425L220.367 252.033Z" fill="black"/>
<path d="M205.368 264.722C231.172 264.722 252.09 243.803 252.09 217.999C252.09 192.195 231.172 171.277 205.368 171.277C179.564 171.277 158.646 192.195 158.646 217.999C158.646 243.803 179.564 264.722 205.368 264.722Z" fill="#FDC2CC"/>
<path d="M267.669 483.914L75.5841 498.926L106.728 462.587C140.146 442.169 139.859 414.102 135.418 396.692C134.04 391.113 131.957 385.731 129.221 380.678L195.614 380.989H196.174L201.631 393.391L201.88 393.951L205.941 403.176L219.782 378.373L224.596 370.612L227.287 366.252C227.287 366.252 267.089 357.021 267.663 380.671C267.732 383.387 267.625 386.104 267.345 388.806C265.364 407.842 254.949 420.499 246.323 429.125C236.518 438.923 267.669 483.914 267.669 483.914Z" fill="#A80038"/>
<path d="M244.728 433.237C243.32 438.843 246.871 448.479 251.58 457.941C229 460.37 204.241 459.105 204.241 459.105L178.833 466.032L107.314 486.799C104.199 482.769 101.708 477.705 99.6461 471.999L106.734 463.727C129.04 450.098 136.328 433.063 137.393 418.064C137.817 411.256 137.152 404.424 135.424 397.826C134.047 392.251 131.967 386.874 129.233 381.824L195.626 382.136H196.187L201.643 394.537L201.892 395.098L205.954 404.323L219.794 379.52L224.596 371.758L227.287 367.398C227.287 367.398 267.09 358.155 267.669 381.824C267.738 384.54 267.632 387.257 267.351 389.959C265.37 408.994 254.956 421.651 246.329 430.278C245.534 431.099 244.98 432.123 244.728 433.237Z" fill="#A80038"/>
<path d="M394.569 463.147C393.416 476.988 359.961 458.532 359.961 458.532C359.961 458.532 349.578 455.069 314.391 432.576C296.527 421.159 282.44 404.712 273.904 385.306C272.558 382.306 271.432 379.213 270.534 376.05L294.777 358.154L301.846 368.961L325.348 404.871L359.955 427.917C359.955 427.917 395.721 449.307 394.569 463.147Z" fill="#FDC2CC"/>
<path d="M702.584 508.718H37.5135L104.093 489.016L270.54 439.758L376.68 408.346H513.39L702.584 508.718Z" fill="#CBCDDA"/>
<path d="M37.5135 508.718L35.7819 539.289H703.737L702.584 508.718H37.5135Z" fill="#CBCDDA"/>
<path opacity="0.1" d="M37.5135 508.718L35.7819 539.289H703.737L702.584 508.718H37.5135Z" fill="black"/>
<path d="M211.877 465.483L352.456 451.038L354.187 478.725L289.931 485.097C285.498 485.457 281.037 485.11 276.713 484.07L211.759 467.289C211.552 467.235 211.37 467.11 211.245 466.936C211.119 466.763 211.059 466.551 211.073 466.337C211.087 466.123 211.175 465.921 211.321 465.765C211.468 465.609 211.665 465.51 211.877 465.483Z" fill="#535461"/>
<path opacity="0.2" d="M211.877 465.483L352.456 451.038L354.187 478.725L289.931 485.097C285.498 485.457 281.037 485.11 276.713 484.07L211.759 467.289C211.552 467.235 211.37 467.11 211.245 466.936C211.119 466.763 211.059 466.551 211.073 466.337C211.087 466.123 211.175 465.921 211.321 465.765C211.468 465.609 211.665 465.51 211.877 465.483Z" fill="black"/>
<path d="M211.877 464.904L353.614 450.459L355.346 478.146L291.083 483.353C286.654 483.719 282.194 483.378 277.872 482.344L211.759 466.716C211.548 466.665 211.362 466.541 211.233 466.366C211.104 466.191 211.042 465.977 211.056 465.76C211.07 465.544 211.16 465.339 211.31 465.182C211.461 465.025 211.661 464.927 211.877 464.904Z" fill="#535461"/>
<path opacity="0.3" d="M245.482 465.913L320.427 458.277L321.343 472.915L287.364 475.674C285.021 475.865 282.662 475.682 280.376 475.132L245.419 466.866C245.31 466.838 245.213 466.773 245.147 466.681C245.08 466.589 245.048 466.477 245.055 466.364C245.063 466.251 245.109 466.144 245.187 466.062C245.265 465.979 245.369 465.927 245.482 465.913Z" fill="white"/>
<path opacity="0.1" d="M301.846 368.974C301.392 369.597 300.601 369.877 299.392 369.703C287.856 367.971 274.589 384.702 274.589 384.702C274.589 384.702 274.352 384.926 273.922 385.324C272.577 382.325 271.45 379.231 270.553 376.068L294.777 358.154L301.846 368.974Z" fill="black"/>
<path opacity="0.1" d="M267.351 389.921C261.926 392.942 254.457 395.11 248.633 389.298C238.574 379.239 220.94 380.578 219.844 380.64C221.644 380.391 223.238 376.691 224.596 371.733L227.287 367.373C227.287 367.373 267.089 358.154 267.669 381.824C267.736 384.527 267.63 387.232 267.351 389.921Z" fill="black"/>
<path opacity="0.1" d="M246.472 338.913L242.859 365.074L234.718 380.945C229.673 379.653 224.456 379.164 219.258 379.494C224.995 378.703 228.701 342.856 228.701 342.856L229.031 342.781L246.472 338.913Z" fill="black"/>
<path d="M299.392 368.55C287.856 366.818 274.589 383.549 274.589 383.549C274.589 383.549 259.017 398.548 248.633 388.165C238.574 378.105 220.94 379.444 219.844 379.507C225.581 378.709 229.287 342.862 229.287 342.862L229.617 342.788L284.972 330.479C284.972 330.479 288.274 335.537 291.999 341.978C298.719 353.582 306.817 369.665 299.392 368.55Z" fill="#A80038"/>
<path opacity="0.1" d="M285.545 345.479C286.125 346.631 276.314 352.399 271.705 350.667C267.096 348.936 255.554 358.142 254.401 359.319C253.249 360.496 227.293 357.587 227.293 357.587C228.37 352.706 229.146 347.764 229.617 342.788L284.972 330.479C284.972 330.479 288.274 335.537 291.999 341.978C288.554 343.392 285.265 344.912 285.545 345.479Z" fill="black"/>
<path opacity="0.1" d="M252.09 298.176L246.485 338.913L243.844 358.06C236.107 357.481 226.727 356.441 226.727 356.441C226.727 356.441 236.531 315.486 220.38 294.153C220.38 294.153 220.722 294.153 221.339 294.09C230.402 309.152 252.09 298.176 252.09 298.176Z" fill="black"/>
<path d="M220.946 294.141C220.946 294.141 250.365 291.836 261.901 299.909C273.437 307.981 290.167 332.211 290.167 332.211L299.398 337.979C299.398 337.979 284.979 343.168 285.558 344.327C286.137 345.485 276.327 351.247 271.717 349.515C267.108 347.784 255.566 356.99 254.414 358.167C253.261 359.344 227.306 356.435 227.306 356.435C227.306 356.435 237.098 315.481 220.946 294.141Z" fill="#A80038"/>
<path d="M433.487 453.05C426.809 452.889 269.824 448.815 254.837 432.097C238.879 414.295 254.37 363 267.413 325.964C281.609 285.644 264.685 227.747 264.517 227.087L265.632 226.794C265.806 227.461 282.817 285.694 268.503 326.344C248.216 383.967 244.024 418.306 255.697 431.324C270.36 447.675 431.886 451.879 433.518 451.879L433.487 453.05Z" fill="#DFE6F5"/>
<path d="M324.955 309.326L470.174 307.121C472.046 307.312 473.861 307.874 475.514 308.774C477.166 309.675 478.623 310.895 479.798 312.364C480.974 313.834 481.844 315.523 482.36 317.333C482.875 319.142 483.025 321.037 482.8 322.905L466.325 460.064C465.931 463.359 464.393 466.411 461.978 468.688C459.563 470.965 456.426 472.322 453.113 472.521L304.687 481.709C302.585 481.835 300.482 481.491 298.53 480.702C296.578 479.913 294.827 478.698 293.403 477.147C291.98 475.596 290.92 473.747 290.301 471.734C289.682 469.722 289.519 467.597 289.825 465.514L309.533 321.366C310.061 317.761 311.959 314.498 314.831 312.255C317.703 310.013 321.329 308.964 324.955 309.326Z" fill="#535461"/>
<path opacity="0.2" d="M324.955 309.326L470.174 307.121C472.046 307.312 473.861 307.874 475.514 308.774C477.166 309.675 478.623 310.895 479.798 312.364C480.974 313.834 481.844 315.523 482.36 317.333C482.875 319.142 483.025 321.037 482.8 322.905L466.325 460.064C465.931 463.359 464.393 466.411 461.978 468.688C459.563 470.965 456.426 472.322 453.113 472.521L304.687 481.709C302.585 481.835 300.482 481.491 298.53 480.702C296.578 479.913 294.827 478.698 293.403 477.147C291.98 475.596 290.92 473.747 290.301 471.734C289.682 469.722 289.519 467.597 289.825 465.514L309.533 321.366C310.061 317.761 311.959 314.498 314.831 312.255C317.703 310.013 321.329 308.964 324.955 309.326Z" fill="black"/>
<path d="M326.108 309.326L471.327 307.121C473.201 307.309 475.019 307.869 476.674 308.768C478.329 309.667 479.789 310.887 480.967 312.356C482.145 313.826 483.018 315.516 483.535 317.327C484.052 319.139 484.202 321.035 483.977 322.905L467.502 460.064C467.108 463.359 465.57 466.411 463.155 468.688C460.741 470.965 457.603 472.322 454.291 472.521L305.845 481.709C303.744 481.835 301.64 481.491 299.688 480.702C297.737 479.913 295.985 478.698 294.562 477.147C293.138 475.596 292.078 473.747 291.459 471.734C290.84 469.722 290.678 467.597 290.983 465.514L310.691 321.366C311.22 317.762 313.116 314.5 315.987 312.258C318.858 310.016 322.483 308.966 326.108 309.326Z" fill="#535461"/>
<path opacity="0.3" d="M397.16 394.213C400.982 394.213 404.08 391.114 404.08 387.292C404.08 383.47 400.982 380.372 397.16 380.372C393.338 380.372 390.24 383.47 390.24 387.292C390.24 391.114 393.338 394.213 397.16 394.213Z" fill="white"/>
<path opacity="0.1" d="M251.58 457.947C229 460.376 204.241 459.111 204.241 459.111L178.833 466.032L107.314 486.799C104.199 482.769 101.708 477.705 99.6461 471.999L106.734 463.727C129.04 450.098 136.328 433.062 137.393 418.063C139.299 432.982 139.616 446.417 139.616 446.417L168.456 443.533L210.357 433.567C213.243 432.88 216.199 432.535 219.165 432.539C224.621 432.539 234.332 432.658 244.703 433.218C243.32 438.83 246.871 448.473 251.58 457.947Z" fill="black"/>
<path opacity="0.1" d="M283.241 450.459C269.973 466.031 201.911 462.574 201.911 462.574L176.529 469.495L105.003 490.255C104.691 489.85 104.38 489.439 104.093 489.01L270.546 439.752C281.173 441.895 287.694 445.233 283.241 450.459Z" fill="black"/>
<path d="M283.241 449.307C269.973 464.879 201.911 461.422 201.911 461.422L176.529 468.336L105.003 489.103C88.1851 467.302 88.5588 415.347 89.4744 394.331C89.7236 388.688 90.0039 385.274 90.0039 385.274C90.0039 385.274 114.228 370.275 125.191 385.274C127.146 387.946 128.785 391.684 130.174 396.019C136.533 416.007 137.312 448.721 137.312 448.721L166.151 445.837L208.053 435.871C210.94 435.184 213.898 434.839 216.866 434.843C234.232 434.893 294.627 435.939 283.241 449.307Z" fill="#FDC2CC"/>
<path opacity="0.1" d="M130.167 396.025C126.486 395.228 122.02 395.402 115.966 397.969C103.851 403.157 94.6257 402.005 94.6257 402.005C94.6257 402.005 95.3669 396.119 89.4807 394.331C89.7298 388.688 90.0101 385.274 90.0101 385.274C90.0101 385.274 114.234 370.275 125.197 385.274C127.134 387.946 128.785 391.684 130.167 396.025Z" fill="black"/>
<path opacity="0.1" d="M201.88 395.085C201.494 395.166 196.305 396.144 186.308 393.926C175.924 391.622 171.888 396.231 166.12 398.542C160.352 400.853 145.384 402.005 139.592 399.7C138.227 399.152 136.857 398.455 135.406 397.832C134.035 392.256 131.961 386.877 129.233 381.824L195.626 382.135L201.643 394.537L201.88 395.085Z" fill="black"/>
<path d="M201.88 393.933C201.88 393.933 196.691 395.085 186.308 392.78C175.924 390.476 171.888 395.085 166.12 397.396C160.352 399.707 145.353 400.859 139.585 398.548C133.817 396.237 128.05 391.628 115.916 396.817C103.782 402.005 94.5758 400.853 94.5758 400.853C94.5758 400.853 95.7281 391.622 83.6193 392.755C71.5104 393.889 63.4316 388.14 63.4316 388.14L76.3004 358.416L80.1623 349.49L176.672 342.894H177.133L201.88 393.933Z" fill="#A80038"/>
<path opacity="0.1" d="M186.308 366.252C179.961 355.868 146.506 365.099 146.506 365.099C146.506 365.099 130.354 369.715 126.891 361.063C123.428 352.411 98.662 358.154 98.662 358.154C98.662 358.154 80.6918 364.894 76.3441 358.428L80.206 349.502L176.672 342.894L186.308 366.252Z" fill="black"/>
<path d="M158.646 298.177C158.646 298.177 126.922 291.83 111.929 299.909C96.9366 307.987 85.4008 325.864 85.4008 325.864L63.4753 346.052C63.4753 346.052 72.1271 350.088 76.1634 357.008C80.1997 363.928 98.6619 357.008 98.6619 357.008C98.6619 357.008 123.465 351.24 126.928 359.892C130.392 368.544 146.543 363.928 146.543 363.928C146.543 363.928 179.998 354.697 186.345 365.081L158.646 298.177Z" fill="#A80038"/>
<path opacity="0.1" d="M195.215 150.379C190.917 149.657 186.495 148.953 182.234 149.881C175.208 151.407 169.851 157.107 165.908 163.111C161.966 169.116 158.901 175.781 154.036 181.069C150.779 184.613 146.773 187.46 143.871 191.297C139.598 196.946 138.109 204.153 136.733 211.104C134.714 221.307 132.69 231.659 133.581 242.043C134.029 247.25 135.213 252.377 135.493 257.615C136.06 268.135 132.952 278.463 129.887 288.541C127.763 295.505 125.57 302.6 121.372 308.548C118.588 312.491 115.019 315.792 111.618 319.212C110.797 319.909 110.179 320.815 109.83 321.834C109.095 324.812 112.689 326.817 115.436 328.163C123.839 332.355 129.351 340.533 135.885 347.273C142.419 354.012 151.769 359.799 160.757 357.096C163.423 356.292 165.952 354.766 168.73 354.816C170.599 354.847 172.393 355.607 174.168 356.23C178.584 357.781 183.234 358.56 187.915 358.534C188.949 358.623 189.986 358.406 190.898 357.912C192.287 356.971 192.555 355.077 192.692 353.408C193.571 342.931 194.443 332.417 193.851 321.921C192.512 298.152 170.549 270.658 178.902 248.353C182.533 238.623 189.173 230.252 192.848 220.541C196.722 210.307 210.382 201.998 213.092 191.39C213.397 190.194 213.814 188.899 214.861 188.276C216.3 187.391 218.174 188.164 219.564 189.123C227.424 194.542 229.984 204.732 232.843 213.839C235.147 221.174 238.002 228.324 241.383 235.229C243.252 238.966 247.263 243.295 250.776 241.028C249.007 256.774 238.792 270.527 236.481 286.199C234.226 301.472 239.689 317.082 237.571 332.367C236.177 342.209 231.72 351.361 224.833 358.528C232.605 360.072 240.598 360.144 248.397 358.74C256.301 357.314 264.76 353.57 267.613 346.058C270.727 337.792 265.912 328.923 263.464 320.426C257.591 300.002 258.045 275.847 259.908 254.675C261.826 232.905 264.704 213.845 259.827 192.542C258.631 187.316 257.416 182.047 255.124 177.201C250.303 167.017 240.386 159.729 229.517 157.163C223.911 155.842 218.193 157.891 212.973 156.92C210.345 156.428 207.99 153.911 205.437 152.89C202.16 151.55 198.647 150.952 195.215 150.379Z" fill="black"/>
<path d="M266.243 338.579C263.39 346.091 254.931 349.835 247.02 351.261C239.221 352.662 231.229 352.59 223.457 351.049C230.342 343.881 234.798 334.729 236.195 324.888C238.319 309.596 232.856 293.987 235.105 278.72C237.415 263.042 247.631 249.289 249.4 233.542C245.887 235.81 241.844 231.499 240 227.743C236.621 220.838 233.766 213.688 231.461 206.353C228.602 197.247 226.042 187.044 218.181 181.637C216.792 180.678 214.917 179.906 213.478 180.797C212.425 181.419 212.014 182.734 211.709 183.911C209.006 194.5 195.34 202.822 191.472 213.056C187.79 222.766 181.15 231.119 177.519 240.867C169.197 263.167 191.16 290.661 192.468 314.43C193.054 324.925 192.182 335.446 191.31 345.917C191.166 347.592 190.899 349.486 189.51 350.426C188.599 350.92 187.564 351.137 186.532 351.049C181.865 351.077 177.227 350.302 172.823 348.757C171.047 348.134 169.266 347.374 167.385 347.343C164.607 347.299 162.078 348.825 159.412 349.623C150.424 352.326 141.068 346.539 134.54 339.8C128.012 333.06 122.481 324.894 114.085 320.727C111.338 319.357 107.744 317.376 108.479 314.392C108.831 313.377 109.448 312.473 110.266 311.776C113.667 308.357 117.243 305.049 120.027 301.113C124.225 295.164 126.411 288.069 128.542 281.106C131.619 271.027 134.727 260.7 134.148 250.179C133.874 244.966 132.69 239.84 132.235 234.607C131.338 224.243 133.369 213.878 135.387 203.675C136.758 196.724 138.246 189.517 142.525 183.867C145.434 180.03 149.433 177.184 152.697 173.64C157.568 168.351 160.62 161.686 164.569 155.676C168.518 149.665 173.875 143.972 180.901 142.446C185.156 141.518 189.584 142.228 193.882 142.944C197.314 143.523 200.827 144.121 204.073 145.435C206.633 146.457 208.987 148.98 211.609 149.459C216.829 150.437 222.566 148.388 228.153 149.708C239.023 152.268 248.939 159.556 253.76 169.74C254.703 171.756 255.498 173.838 256.139 175.969C257.061 178.959 257.765 182.017 258.463 185.07C258.612 185.692 258.755 186.365 258.892 187.007C263.159 207.288 260.406 222.056 258.544 243.153C256.681 264.25 256.227 292.517 262.094 312.916C264.542 321.437 269.382 330.313 266.243 338.579Z" fill="#865A61"/>
<path opacity="0.05" d="M201.045 381.531C201.045 381.531 205.661 389.006 205.661 394.219C205.661 394.219 209.124 381.531 212.008 381.531" fill="black"/>
<path d="M190.082 383.256V421.326C190.091 427.545 187.997 433.584 184.14 438.462C183.481 439.294 182.776 440.088 182.029 440.841C179.456 443.425 176.398 445.476 173.031 446.875C169.664 448.274 166.054 448.994 162.408 448.994C158.762 448.994 155.151 448.274 151.784 446.875C148.417 445.476 145.36 443.425 142.787 440.841C142.039 440.088 141.334 439.294 140.675 438.462C136.818 433.584 134.724 427.545 134.733 421.326V383.256C134.72 376.787 136.985 370.52 141.13 365.553C141.866 364.672 142.659 363.84 143.503 363.062C148.63 358.255 155.395 355.58 162.423 355.58C169.452 355.58 176.216 358.255 181.343 363.062C181.568 363.261 181.786 363.479 182.004 363.685C182.627 364.308 183.168 364.931 183.717 365.553C187.851 370.524 190.104 376.791 190.082 383.256Z" fill="#DFE6F5"/>
<path opacity="0.1" d="M190.082 383.256V421.326C190.091 427.545 187.997 433.584 184.14 438.462C183.481 439.294 182.776 440.088 182.029 440.841C179.456 443.425 176.398 445.476 173.031 446.875C169.664 448.274 166.054 448.994 162.408 448.994C158.762 448.994 155.151 448.274 151.784 446.875C148.417 445.476 145.36 443.425 142.787 440.841C142.039 440.088 141.334 439.294 140.675 438.462C136.818 433.584 134.724 427.545 134.733 421.326V383.256C134.72 376.787 136.985 370.52 141.13 365.553C141.866 364.672 142.659 363.84 143.503 363.062C148.63 358.255 155.395 355.58 162.423 355.58C169.452 355.58 176.216 358.255 181.343 363.062C181.568 363.261 181.786 363.479 182.004 363.685C182.627 364.308 183.168 364.931 183.717 365.553C187.851 370.524 190.104 376.791 190.082 383.256Z" fill="black"/>
<path d="M191.241 383.256V421.326C191.25 427.545 189.156 433.584 185.299 438.462C184.64 439.294 183.935 440.088 183.187 440.841C180.615 443.425 177.557 445.476 174.19 446.875C170.823 448.274 167.212 448.994 163.566 448.994C159.92 448.994 156.31 448.274 152.943 446.875C149.576 445.476 146.518 443.425 143.945 440.841C143.198 440.088 142.493 439.294 141.834 438.462C137.963 433.589 135.856 427.549 135.854 421.326V383.256C135.841 376.787 138.106 370.52 142.251 365.553C142.987 364.672 143.78 363.84 144.624 363.062C149.752 358.255 156.516 355.58 163.544 355.58C170.573 355.58 177.337 358.255 182.465 363.062C182.689 363.261 182.907 363.479 183.125 363.685C183.748 364.308 184.29 364.931 184.838 365.553C188.985 370.519 191.252 376.786 191.241 383.256Z" fill="#DFE6F5"/>
<path opacity="0.1" d="M151.433 365.952C152.389 365.952 153.164 365.177 153.164 364.221C153.164 363.265 152.389 362.489 151.433 362.489C150.476 362.489 149.701 363.265 149.701 364.221C149.701 365.177 150.476 365.952 151.433 365.952Z" fill="black"/>
<path opacity="0.1" d="M151.433 371.721C152.389 371.721 153.164 370.945 153.164 369.989C153.164 369.033 152.389 368.257 151.433 368.257C150.476 368.257 149.701 369.033 149.701 369.989C149.701 370.945 150.476 371.721 151.433 371.721Z" fill="black"/>
<path opacity="0.1" d="M151.433 377.489C152.389 377.489 153.164 376.713 153.164 375.757C153.164 374.801 152.389 374.025 151.433 374.025C150.476 374.025 149.701 374.801 149.701 375.757C149.701 376.713 150.476 377.489 151.433 377.489Z" fill="black"/>
<path opacity="0.1" d="M151.433 383.256C152.389 383.256 153.164 382.481 153.164 381.525C153.164 380.568 152.389 379.793 151.433 379.793C150.476 379.793 149.701 380.568 149.701 381.525C149.701 382.481 150.476 383.256 151.433 383.256Z" fill="black"/>
<path opacity="0.1" d="M151.433 389.024C152.389 389.024 153.164 388.249 153.164 387.293C153.164 386.336 152.389 385.561 151.433 385.561C150.476 385.561 149.701 386.336 149.701 387.293C149.701 388.249 150.476 389.024 151.433 389.024Z" fill="black"/>
<path opacity="0.1" d="M151.433 394.792C152.389 394.792 153.164 394.017 153.164 393.06C153.164 392.104 152.389 391.329 151.433 391.329C150.476 391.329 149.701 392.104 149.701 393.06C149.701 394.017 150.476 394.792 151.433 394.792Z" fill="black"/>
<path opacity="0.1" d="M151.433 400.56C152.389 400.56 153.164 399.785 153.164 398.828C153.164 397.872 152.389 397.097 151.433 397.097C150.476 397.097 149.701 397.872 149.701 398.828C149.701 399.785 150.476 400.56 151.433 400.56Z" fill="black"/>
<path opacity="0.1" d="M151.433 406.334C152.389 406.334 153.164 405.559 153.164 404.603C153.164 403.646 152.389 402.871 151.433 402.871C150.476 402.871 149.701 403.646 149.701 404.603C149.701 405.559 150.476 406.334 151.433 406.334Z" fill="black"/>
<path opacity="0.1" d="M151.433 412.102C152.389 412.102 153.164 411.327 153.164 410.37C153.164 409.414 152.389 408.639 151.433 408.639C150.476 408.639 149.701 409.414 149.701 410.37C149.701 411.327 150.476 412.102 151.433 412.102Z" fill="black"/>
<path opacity="0.1" d="M151.433 417.87C152.389 417.87 153.164 417.095 153.164 416.139C153.164 415.182 152.389 414.407 151.433 414.407C150.476 414.407 149.701 415.182 149.701 416.139C149.701 417.095 150.476 417.87 151.433 417.87Z" fill="black"/>
<path opacity="0.1" d="M151.433 423.638C152.389 423.638 153.164 422.863 153.164 421.906C153.164 420.95 152.389 420.175 151.433 420.175C150.476 420.175 149.701 420.95 149.701 421.906C149.701 422.863 150.476 423.638 151.433 423.638Z" fill="black"/>
<path opacity="0.1" d="M151.433 429.406C152.389 429.406 153.164 428.631 153.164 427.674C153.164 426.718 152.389 425.943 151.433 425.943C150.476 425.943 149.701 426.718 149.701 427.674C149.701 428.631 150.476 429.406 151.433 429.406Z" fill="black"/>
<path opacity="0.1" d="M151.433 435.174C152.389 435.174 153.164 434.398 153.164 433.442C153.164 432.486 152.389 431.71 151.433 431.71C150.476 431.71 149.701 432.486 149.701 433.442C149.701 434.398 150.476 435.174 151.433 435.174Z" fill="black"/>
<path opacity="0.1" d="M151.433 440.941C152.389 440.941 153.164 440.166 153.164 439.21C153.164 438.253 152.389 437.478 151.433 437.478C150.476 437.478 149.701 438.253 149.701 439.21C149.701 440.166 150.476 440.941 151.433 440.941Z" fill="black"/>
<path opacity="0.1" d="M145.092 364.221C145.091 364.549 144.997 364.871 144.821 365.148C144.645 365.425 144.394 365.646 144.097 365.786C143.8 365.925 143.469 365.978 143.144 365.937C142.818 365.896 142.511 365.763 142.258 365.554C142.993 364.673 143.786 363.84 144.631 363.062C144.926 363.376 145.091 363.79 145.092 364.221Z" fill="black"/>
<path opacity="0.1" d="M143.36 371.721C144.316 371.721 145.092 370.945 145.092 369.989C145.092 369.033 144.316 368.257 143.36 368.257C142.404 368.257 141.628 369.033 141.628 369.989C141.628 370.945 142.404 371.721 143.36 371.721Z" fill="black"/>
<path opacity="0.1" d="M143.36 377.489C144.316 377.489 145.092 376.713 145.092 375.757C145.092 374.801 144.316 374.025 143.36 374.025C142.404 374.025 141.628 374.801 141.628 375.757C141.628 376.713 142.404 377.489 143.36 377.489Z" fill="black"/>
<path opacity="0.1" d="M143.36 383.256C144.316 383.256 145.092 382.481 145.092 381.525C145.092 380.568 144.316 379.793 143.36 379.793C142.404 379.793 141.628 380.568 141.628 381.525C141.628 382.481 142.404 383.256 143.36 383.256Z" fill="black"/>
<path opacity="0.1" d="M143.36 389.024C144.316 389.024 145.092 388.249 145.092 387.293C145.092 386.336 144.316 385.561 143.36 385.561C142.404 385.561 141.628 386.336 141.628 387.293C141.628 388.249 142.404 389.024 143.36 389.024Z" fill="black"/>
<path opacity="0.1" d="M143.36 394.792C144.316 394.792 145.092 394.017 145.092 393.06C145.092 392.104 144.316 391.329 143.36 391.329C142.404 391.329 141.628 392.104 141.628 393.06C141.628 394.017 142.404 394.792 143.36 394.792Z" fill="black"/>
<path opacity="0.1" d="M143.36 400.56C144.316 400.56 145.092 399.785 145.092 398.828C145.092 397.872 144.316 397.097 143.36 397.097C142.404 397.097 141.628 397.872 141.628 398.828C141.628 399.785 142.404 400.56 143.36 400.56Z" fill="black"/>
<path opacity="0.1" d="M143.36 406.334C144.316 406.334 145.092 405.559 145.092 404.603C145.092 403.646 144.316 402.871 143.36 402.871C142.404 402.871 141.628 403.646 141.628 404.603C141.628 405.559 142.404 406.334 143.36 406.334Z" fill="black"/>
<path opacity="0.1" d="M143.36 412.102C144.316 412.102 145.092 411.327 145.092 410.37C145.092 409.414 144.316 408.639 143.36 408.639C142.404 408.639 141.628 409.414 141.628 410.37C141.628 411.327 142.404 412.102 143.36 412.102Z" fill="black"/>
<path opacity="0.1" d="M143.36 417.87C144.316 417.87 145.092 417.095 145.092 416.139C145.092 415.182 144.316 414.407 143.36 414.407C142.404 414.407 141.628 415.182 141.628 416.139C141.628 417.095 142.404 417.87 143.36 417.87Z" fill="black"/>
<path opacity="0.1" d="M143.36 423.638C144.316 423.638 145.092 422.863 145.092 421.906C145.092 420.95 144.316 420.175 143.36 420.175C142.404 420.175 141.628 420.95 141.628 421.906C141.628 422.863 142.404 423.638 143.36 423.638Z" fill="black"/>
<path opacity="0.1" d="M143.36 429.406C144.316 429.406 145.092 428.631 145.092 427.674C145.092 426.718 144.316 425.943 143.36 425.943C142.404 425.943 141.628 426.718 141.628 427.674C141.628 428.631 142.404 429.406 143.36 429.406Z" fill="black"/>
<path opacity="0.1" d="M143.36 435.174C144.316 435.174 145.092 434.398 145.092 433.442C145.092 432.486 144.316 431.71 143.36 431.71C142.404 431.71 141.628 432.486 141.628 433.442C141.628 434.398 142.404 435.174 143.36 435.174Z" fill="black"/>
<path opacity="0.1" d="M145.092 439.21C145.092 439.572 144.979 439.925 144.767 440.219C144.556 440.513 144.258 440.733 143.914 440.848C143.167 440.095 142.462 439.3 141.803 438.468C141.969 438.112 142.253 437.823 142.606 437.649C142.96 437.476 143.362 437.428 143.746 437.515C144.13 437.601 144.473 437.817 144.717 438.125C144.962 438.433 145.094 438.816 145.092 439.21Z" fill="black"/>
<path opacity="0.1" d="M159.511 365.952C160.468 365.952 161.243 365.177 161.243 364.221C161.243 363.265 160.468 362.489 159.511 362.489C158.555 362.489 157.78 363.265 157.78 364.221C157.78 365.177 158.555 365.952 159.511 365.952Z" fill="black"/>
<path opacity="0.1" d="M159.511 371.721C160.468 371.721 161.243 370.945 161.243 369.989C161.243 369.033 160.468 368.257 159.511 368.257C158.555 368.257 157.78 369.033 157.78 369.989C157.78 370.945 158.555 371.721 159.511 371.721Z" fill="black"/>
<path opacity="0.1" d="M159.511 377.489C160.468 377.489 161.243 376.713 161.243 375.757C161.243 374.801 160.468 374.025 159.511 374.025C158.555 374.025 157.78 374.801 157.78 375.757C157.78 376.713 158.555 377.489 159.511 377.489Z" fill="black"/>
<path opacity="0.1" d="M159.511 383.256C160.468 383.256 161.243 382.481 161.243 381.525C161.243 380.568 160.468 379.793 159.511 379.793C158.555 379.793 157.78 380.568 157.78 381.525C157.78 382.481 158.555 383.256 159.511 383.256Z" fill="black"/>
<path opacity="0.1" d="M159.511 389.024C160.468 389.024 161.243 388.249 161.243 387.293C161.243 386.336 160.468 385.561 159.511 385.561C158.555 385.561 157.78 386.336 157.78 387.293C157.78 388.249 158.555 389.024 159.511 389.024Z" fill="black"/>
<path opacity="0.1" d="M159.511 394.792C160.468 394.792 161.243 394.017 161.243 393.06C161.243 392.104 160.468 391.329 159.511 391.329C158.555 391.329 157.78 392.104 157.78 393.06C157.78 394.017 158.555 394.792 159.511 394.792Z" fill="black"/>
<path opacity="0.1" d="M159.511 400.56C160.468 400.56 161.243 399.785 161.243 398.828C161.243 397.872 160.468 397.097 159.511 397.097C158.555 397.097 157.78 397.872 157.78 398.828C157.78 399.785 158.555 400.56 159.511 400.56Z" fill="black"/>
<path opacity="0.1" d="M159.511 406.334C160.468 406.334 161.243 405.559 161.243 404.603C161.243 403.646 160.468 402.871 159.511 402.871C158.555 402.871 157.78 403.646 157.78 404.603C157.78 405.559 158.555 406.334 159.511 406.334Z" fill="black"/>
<path opacity="0.1" d="M159.511 412.102C160.468 412.102 161.243 411.327 161.243 410.37C161.243 409.414 160.468 408.639 159.511 408.639C158.555 408.639 157.78 409.414 157.78 410.37C157.78 411.327 158.555 412.102 159.511 412.102Z" fill="black"/>
<path opacity="0.1" d="M159.511 417.87C160.468 417.87 161.243 417.095 161.243 416.139C161.243 415.182 160.468 414.407 159.511 414.407C158.555 414.407 157.78 415.182 157.78 416.139C157.78 417.095 158.555 417.87 159.511 417.87Z" fill="black"/>
<path opacity="0.1" d="M159.511 423.638C160.468 423.638 161.243 422.863 161.243 421.906C161.243 420.95 160.468 420.175 159.511 420.175C158.555 420.175 157.78 420.95 157.78 421.906C157.78 422.863 158.555 423.638 159.511 423.638Z" fill="black"/>
<path opacity="0.1" d="M159.511 429.406C160.468 429.406 161.243 428.631 161.243 427.674C161.243 426.718 160.468 425.943 159.511 425.943C158.555 425.943 157.78 426.718 157.78 427.674C157.78 428.631 158.555 429.406 159.511 429.406Z" fill="black"/>
<path opacity="0.1" d="M159.511 435.174C160.468 435.174 161.243 434.398 161.243 433.442C161.243 432.486 160.468 431.71 159.511 431.71C158.555 431.71 157.78 432.486 157.78 433.442C157.78 434.398 158.555 435.174 159.511 435.174Z" fill="black"/>
<path opacity="0.1" d="M159.511 440.941C160.468 440.941 161.243 440.166 161.243 439.21C161.243 438.253 160.468 437.478 159.511 437.478C158.555 437.478 157.78 438.253 157.78 439.21C157.78 440.166 158.555 440.941 159.511 440.941Z" fill="black"/>
<path opacity="0.1" d="M167.584 365.952C168.54 365.952 169.316 365.177 169.316 364.221C169.316 363.265 168.54 362.489 167.584 362.489C166.628 362.489 165.852 363.265 165.852 364.221C165.852 365.177 166.628 365.952 167.584 365.952Z" fill="black"/>
<path opacity="0.1" d="M167.584 371.721C168.54 371.721 169.316 370.945 169.316 369.989C169.316 369.033 168.54 368.257 167.584 368.257C166.628 368.257 165.852 369.033 165.852 369.989C165.852 370.945 166.628 371.721 167.584 371.721Z" fill="black"/>
<path opacity="0.1" d="M167.584 377.489C168.54 377.489 169.316 376.713 169.316 375.757C169.316 374.801 168.54 374.025 167.584 374.025C166.628 374.025 165.852 374.801 165.852 375.757C165.852 376.713 166.628 377.489 167.584 377.489Z" fill="black"/>
<path opacity="0.1" d="M167.584 383.256C168.54 383.256 169.316 382.481 169.316 381.525C169.316 380.568 168.54 379.793 167.584 379.793C166.628 379.793 165.852 380.568 165.852 381.525C165.852 382.481 166.628 383.256 167.584 383.256Z" fill="black"/>
<path opacity="0.1" d="M167.584 389.024C168.54 389.024 169.316 388.249 169.316 387.293C169.316 386.336 168.54 385.561 167.584 385.561C166.628 385.561 165.852 386.336 165.852 387.293C165.852 388.249 166.628 389.024 167.584 389.024Z" fill="black"/>
<path opacity="0.1" d="M167.584 394.792C168.54 394.792 169.316 394.017 169.316 393.06C169.316 392.104 168.54 391.329 167.584 391.329C166.628 391.329 165.852 392.104 165.852 393.06C165.852 394.017 166.628 394.792 167.584 394.792Z" fill="black"/>
<path opacity="0.1" d="M167.584 400.56C168.54 400.56 169.316 399.785 169.316 398.828C169.316 397.872 168.54 397.097 167.584 397.097C166.628 397.097 165.852 397.872 165.852 398.828C165.852 399.785 166.628 400.56 167.584 400.56Z" fill="black"/>
<path opacity="0.1" d="M167.584 406.334C168.54 406.334 169.316 405.559 169.316 404.603C169.316 403.646 168.54 402.871 167.584 402.871C166.628 402.871 165.852 403.646 165.852 404.603C165.852 405.559 166.628 406.334 167.584 406.334Z" fill="black"/>
<path opacity="0.1" d="M167.584 412.102C168.54 412.102 169.316 411.327 169.316 410.37C169.316 409.414 168.54 408.639 167.584 408.639C166.628 408.639 165.852 409.414 165.852 410.37C165.852 411.327 166.628 412.102 167.584 412.102Z" fill="black"/>
<path opacity="0.1" d="M167.584 417.87C168.54 417.87 169.316 417.095 169.316 416.139C169.316 415.182 168.54 414.407 167.584 414.407C166.628 414.407 165.852 415.182 165.852 416.139C165.852 417.095 166.628 417.87 167.584 417.87Z" fill="black"/>
<path opacity="0.1" d="M167.584 423.638C168.54 423.638 169.316 422.863 169.316 421.906C169.316 420.95 168.54 420.175 167.584 420.175C166.628 420.175 165.852 420.95 165.852 421.906C165.852 422.863 166.628 423.638 167.584 423.638Z" fill="black"/>
<path opacity="0.1" d="M167.584 429.406C168.54 429.406 169.316 428.631 169.316 427.674C169.316 426.718 168.54 425.943 167.584 425.943C166.628 425.943 165.852 426.718 165.852 427.674C165.852 428.631 166.628 429.406 167.584 429.406Z" fill="black"/>
<path opacity="0.1" d="M167.584 435.174C168.54 435.174 169.316 434.398 169.316 433.442C169.316 432.486 168.54 431.71 167.584 431.71C166.628 431.71 165.852 432.486 165.852 433.442C165.852 434.398 166.628 435.174 167.584 435.174Z" fill="black"/>
<path opacity="0.1" d="M167.584 440.941C168.54 440.941 169.316 440.166 169.316 439.21C169.316 438.253 168.54 437.478 167.584 437.478C166.628 437.478 165.852 438.253 165.852 439.21C165.852 440.166 166.628 440.941 167.584 440.941Z" fill="black"/>
<path opacity="0.1" d="M175.663 365.952C176.619 365.952 177.394 365.177 177.394 364.221C177.394 363.265 176.619 362.489 175.663 362.489C174.706 362.489 173.931 363.265 173.931 364.221C173.931 365.177 174.706 365.952 175.663 365.952Z" fill="black"/>
<path opacity="0.1" d="M175.663 371.721C176.619 371.721 177.394 370.945 177.394 369.989C177.394 369.033 176.619 368.257 175.663 368.257C174.706 368.257 173.931 369.033 173.931 369.989C173.931 370.945 174.706 371.721 175.663 371.721Z" fill="black"/>
<path opacity="0.1" d="M175.663 377.489C176.619 377.489 177.394 376.713 177.394 375.757C177.394 374.801 176.619 374.025 175.663 374.025C174.706 374.025 173.931 374.801 173.931 375.757C173.931 376.713 174.706 377.489 175.663 377.489Z" fill="black"/>
<path opacity="0.1" d="M175.663 383.256C176.619 383.256 177.394 382.481 177.394 381.525C177.394 380.568 176.619 379.793 175.663 379.793C174.706 379.793 173.931 380.568 173.931 381.525C173.931 382.481 174.706 383.256 175.663 383.256Z" fill="black"/>
<path opacity="0.1" d="M175.663 389.024C176.619 389.024 177.394 388.249 177.394 387.293C177.394 386.336 176.619 385.561 175.663 385.561C174.706 385.561 173.931 386.336 173.931 387.293C173.931 388.249 174.706 389.024 175.663 389.024Z" fill="black"/>
<path opacity="0.1" d="M175.663 394.792C176.619 394.792 177.394 394.017 177.394 393.06C177.394 392.104 176.619 391.329 175.663 391.329C174.706 391.329 173.931 392.104 173.931 393.06C173.931 394.017 174.706 394.792 175.663 394.792Z" fill="black"/>
<path opacity="0.1" d="M175.663 400.56C176.619 400.56 177.394 399.785 177.394 398.828C177.394 397.872 176.619 397.097 175.663 397.097C174.706 397.097 173.931 397.872 173.931 398.828C173.931 399.785 174.706 400.56 175.663 400.56Z" fill="black"/>
<path opacity="0.1" d="M175.663 406.334C176.619 406.334 177.394 405.559 177.394 404.603C177.394 403.646 176.619 402.871 175.663 402.871C174.706 402.871 173.931 403.646 173.931 404.603C173.931 405.559 174.706 406.334 175.663 406.334Z" fill="black"/>
<path opacity="0.1" d="M175.663 412.102C176.619 412.102 177.394 411.327 177.394 410.37C177.394 409.414 176.619 408.639 175.663 408.639C174.706 408.639 173.931 409.414 173.931 410.37C173.931 411.327 174.706 412.102 175.663 412.102Z" fill="black"/>
<path opacity="0.1" d="M175.663 417.87C176.619 417.87 177.394 417.095 177.394 416.139C177.394 415.182 176.619 414.407 175.663 414.407C174.706 414.407 173.931 415.182 173.931 416.139C173.931 417.095 174.706 417.87 175.663 417.87Z" fill="black"/>
<path opacity="0.1" d="M175.663 423.638C176.619 423.638 177.394 422.863 177.394 421.906C177.394 420.95 176.619 420.175 175.663 420.175C174.706 420.175 173.931 420.95 173.931 421.906C173.931 422.863 174.706 423.638 175.663 423.638Z" fill="black"/>
<path opacity="0.1" d="M175.663 429.406C176.619 429.406 177.394 428.631 177.394 427.674C177.394 426.718 176.619 425.943 175.663 425.943C174.706 425.943 173.931 426.718 173.931 427.674C173.931 428.631 174.706 429.406 175.663 429.406Z" fill="black"/>
<path opacity="0.1" d="M175.663 435.174C176.619 435.174 177.394 434.398 177.394 433.442C177.394 432.486 176.619 431.71 175.663 431.71C174.706 431.71 173.931 432.486 173.931 433.442C173.931 434.398 174.706 435.174 175.663 435.174Z" fill="black"/>
<path opacity="0.1" d="M175.663 440.941C176.619 440.941 177.394 440.166 177.394 439.21C177.394 438.253 176.619 437.478 175.663 437.478C174.706 437.478 173.931 438.253 173.931 439.21C173.931 440.166 174.706 440.941 175.663 440.941Z" fill="black"/>
<path opacity="0.1" d="M184.844 365.553C184.591 365.762 184.284 365.895 183.958 365.936C183.632 365.977 183.302 365.925 183.005 365.785C182.707 365.645 182.456 365.424 182.28 365.147C182.104 364.87 182.01 364.549 182.01 364.22C182.007 363.785 182.173 363.366 182.471 363.049C182.695 363.249 182.913 363.467 183.131 363.672C183.729 364.283 184.296 364.906 184.844 365.553Z" fill="black"/>
<path opacity="0.1" d="M183.735 371.721C184.692 371.721 185.467 370.945 185.467 369.989C185.467 369.033 184.692 368.257 183.735 368.257C182.779 368.257 182.004 369.033 182.004 369.989C182.004 370.945 182.779 371.721 183.735 371.721Z" fill="black"/>
<path opacity="0.1" d="M183.735 377.489C184.692 377.489 185.467 376.713 185.467 375.757C185.467 374.801 184.692 374.025 183.735 374.025C182.779 374.025 182.004 374.801 182.004 375.757C182.004 376.713 182.779 377.489 183.735 377.489Z" fill="black"/>
<path opacity="0.1" d="M183.735 383.256C184.692 383.256 185.467 382.481 185.467 381.525C185.467 380.568 184.692 379.793 183.735 379.793C182.779 379.793 182.004 380.568 182.004 381.525C182.004 382.481 182.779 383.256 183.735 383.256Z" fill="black"/>
<path opacity="0.1" d="M183.735 389.024C184.692 389.024 185.467 388.249 185.467 387.293C185.467 386.336 184.692 385.561 183.735 385.561C182.779 385.561 182.004 386.336 182.004 387.293C182.004 388.249 182.779 389.024 183.735 389.024Z" fill="black"/>
<path opacity="0.1" d="M183.735 394.792C184.692 394.792 185.467 394.017 185.467 393.06C185.467 392.104 184.692 391.329 183.735 391.329C182.779 391.329 182.004 392.104 182.004 393.06C182.004 394.017 182.779 394.792 183.735 394.792Z" fill="black"/>
<path opacity="0.1" d="M183.735 400.56C184.692 400.56 185.467 399.785 185.467 398.828C185.467 397.872 184.692 397.097 183.735 397.097C182.779 397.097 182.004 397.872 182.004 398.828C182.004 399.785 182.779 400.56 183.735 400.56Z" fill="black"/>
<path opacity="0.1" d="M183.735 406.334C184.692 406.334 185.467 405.559 185.467 404.603C185.467 403.646 184.692 402.871 183.735 402.871C182.779 402.871 182.004 403.646 182.004 404.603C182.004 405.559 182.779 406.334 183.735 406.334Z" fill="black"/>
<path opacity="0.1" d="M183.735 412.102C184.692 412.102 185.467 411.327 185.467 410.37C185.467 409.414 184.692 408.639 183.735 408.639C182.779 408.639 182.004 409.414 182.004 410.37C182.004 411.327 182.779 412.102 183.735 412.102Z" fill="black"/>
<path opacity="0.1" d="M183.735 417.87C184.692 417.87 185.467 417.095 185.467 416.139C185.467 415.182 184.692 414.407 183.735 414.407C182.779 414.407 182.004 415.182 182.004 416.139C182.004 417.095 182.779 417.87 183.735 417.87Z" fill="black"/>
<path opacity="0.1" d="M183.735 423.638C184.692 423.638 185.467 422.863 185.467 421.906C185.467 420.95 184.692 420.175 183.735 420.175C182.779 420.175 182.004 420.95 182.004 421.906C182.004 422.863 182.779 423.638 183.735 423.638Z" fill="black"/>
<path opacity="0.1" d="M183.735 429.406C184.692 429.406 185.467 428.631 185.467 427.674C185.467 426.718 184.692 425.943 183.735 425.943C182.779 425.943 182.004 426.718 182.004 427.674C182.004 428.631 182.779 429.406 183.735 429.406Z" fill="black"/>
<path opacity="0.1" d="M183.735 435.174C184.692 435.174 185.467 434.398 185.467 433.442C185.467 432.486 184.692 431.71 183.735 431.71C182.779 431.71 182.004 432.486 182.004 433.442C182.004 434.398 182.779 435.174 183.735 435.174Z" fill="black"/>
<path opacity="0.1" d="M185.299 438.463C184.64 439.295 183.935 440.089 183.187 440.842C182.915 440.752 182.669 440.596 182.472 440.388C182.275 440.179 182.133 439.925 182.059 439.648C181.984 439.371 181.98 439.08 182.046 438.801C182.111 438.522 182.245 438.264 182.436 438.049C182.626 437.835 182.867 437.671 183.136 437.572C183.405 437.474 183.695 437.444 183.979 437.485C184.263 437.526 184.532 437.637 184.762 437.807C184.993 437.978 185.177 438.203 185.299 438.463Z" fill="black"/>
<path d="M163.068 418.443H161.723C159.865 418.443 158.359 419.949 158.359 421.806V492.373C158.359 494.23 159.865 495.736 161.723 495.736H163.068C164.926 495.736 166.432 494.23 166.432 492.373V421.806C166.432 419.949 164.926 418.443 163.068 418.443Z" fill="#54576B"/>
<path d="M185.753 485.353H139.037C136.646 485.353 134.708 487.291 134.708 489.682V491.407C134.708 493.798 136.646 495.736 139.037 495.736H185.753C188.144 495.736 190.082 493.798 190.082 491.407V489.682C190.082 487.291 188.144 485.353 185.753 485.353Z" fill="#54576B"/>
<path opacity="0.1" d="M163.068 418.443H161.723C159.865 418.443 158.359 419.949 158.359 421.806V492.373C158.359 494.23 159.865 495.736 161.723 495.736H163.068C164.926 495.736 166.432 494.23 166.432 492.373V421.806C166.432 419.949 164.926 418.443 163.068 418.443Z" fill="black"/>
<path opacity="0.1" d="M185.753 485.353H139.037C136.646 485.353 134.708 487.291 134.708 489.682V491.407C134.708 493.798 136.646 495.736 139.037 495.736H185.753C188.144 495.736 190.082 493.798 190.082 491.407V489.682C190.082 487.291 188.144 485.353 185.753 485.353Z" fill="black"/>
<path d="M164.22 418.443H162.875C161.017 418.443 159.511 419.949 159.511 421.806V492.373C159.511 494.23 161.017 495.736 162.875 495.736H164.22C166.078 495.736 167.584 494.23 167.584 492.373V421.806C167.584 419.949 166.078 418.443 164.22 418.443Z" fill="#54576B"/>
<path d="M186.906 485.353H140.19C137.799 485.353 135.861 487.291 135.861 489.682V491.407C135.861 493.798 137.799 495.736 140.19 495.736H186.906C189.297 495.736 191.235 493.798 191.235 491.407V489.682C191.235 487.291 189.297 485.353 186.906 485.353Z" fill="#54576B"/>
<path d="M211.634 424.984C207.305 434.403 200.365 442.382 191.638 447.976C182.91 453.57 172.762 456.543 162.395 456.543C152.029 456.543 141.88 453.57 133.153 447.976C124.426 442.382 117.486 434.403 113.156 424.984C107.42 416.755 102.405 400.349 102.405 402.298C102.405 410.176 103.957 417.977 106.972 425.255C109.987 432.534 114.406 439.147 119.976 444.717C125.547 450.288 132.16 454.707 139.438 457.722C146.717 460.736 154.517 462.288 162.395 462.288C170.273 462.288 178.074 460.736 185.352 457.722C192.631 454.707 199.244 450.288 204.815 444.717C210.385 439.147 214.804 432.534 217.819 425.255C220.834 417.977 222.385 410.176 222.385 402.298C222.385 400.349 217.371 416.755 211.634 424.984Z" fill="#54576B"/>
<path d="M162.395 342.302C152.718 342.304 143.186 344.649 134.611 349.135C126.037 353.621 118.676 360.116 113.156 368.064C109.866 375.174 108.166 382.916 108.173 390.75C108.173 392.676 108.275 394.602 108.479 396.518C109.835 383.162 116.1 370.784 126.06 361.784C136.021 352.784 148.968 347.801 162.392 347.801C175.817 347.801 188.763 352.784 198.724 361.784C208.685 370.784 214.95 383.162 216.306 396.518C216.509 394.602 216.611 392.676 216.611 390.75C216.618 382.916 214.918 375.174 211.628 368.064C206.109 360.117 198.749 353.622 190.176 349.136C181.603 344.65 172.071 342.305 162.395 342.302Z" fill="#54576B"/>
<path opacity="0.1" d="M163.548 428.247C164.821 428.247 165.852 427.215 165.852 425.942C165.852 424.67 164.821 423.638 163.548 423.638C162.275 423.638 161.243 424.67 161.243 425.942C161.243 427.215 162.275 428.247 163.548 428.247Z" fill="black"/>
<path opacity="0.2" d="M271.699 483.049C272.178 483.049 272.565 482.661 272.565 482.183C272.565 481.705 272.178 481.317 271.699 481.317C271.221 481.317 270.833 481.705 270.833 482.183C270.833 482.661 271.221 483.049 271.699 483.049Z" fill="black"/>
<path d="M239.035 499.598C235.592 499.62 232.187 498.873 229.069 497.412C217.446 491.943 211.715 492.634 203.045 493.674C194.919 494.794 186.701 495.093 178.516 494.565C176.233 494.459 174.003 493.845 171.988 492.767C169.972 491.69 168.223 490.176 166.868 488.336C154.011 471.643 162.613 427.692 162.987 425.83C163.026 425.689 163.116 425.567 163.241 425.49C163.365 425.413 163.515 425.386 163.658 425.414C163.802 425.443 163.93 425.525 164.015 425.643C164.101 425.762 164.139 425.909 164.121 426.054C164.034 426.503 155.245 471.35 167.783 487.626C169.039 489.337 170.661 490.745 172.531 491.748C174.4 492.752 176.471 493.325 178.59 493.425C186.697 493.945 194.836 493.647 202.883 492.535C211.753 491.463 217.614 490.753 229.536 496.365C248.553 505.316 270.839 482.55 271.057 482.319C271.167 482.225 271.308 482.174 271.453 482.178C271.598 482.183 271.735 482.241 271.839 482.342C271.943 482.442 272.006 482.579 272.014 482.723C272.023 482.868 271.977 483.01 271.886 483.123C271.718 483.322 255.778 499.598 239.035 499.598Z" fill="#DFE6F5"/>
<path d="M260.225 193.283C250.701 176.123 231.367 164.357 209.149 164.357C177.506 164.357 151.756 188.163 151.756 217.426H147.689C147.689 185.939 175.252 160.32 209.118 160.32C228.726 160.32 246.217 168.904 257.472 182.246C258.394 185.236 259.098 188.294 259.796 191.346C259.951 192 260.095 192.642 260.225 193.283Z" fill="#535461"/>
<path d="M156.272 200.565H161.586V237.315H156.272C152.215 237.315 148.324 235.703 145.455 232.834C142.586 229.965 140.974 226.074 140.974 222.017V215.9C140.969 213.888 141.362 211.895 142.128 210.035C142.895 208.174 144.021 206.483 145.442 205.059C146.863 203.634 148.551 202.504 150.409 201.733C152.268 200.962 154.26 200.565 156.272 200.565Z" fill="#DFE6F5"/>
<path d="M162.339 200.596H160.832C158.757 200.596 157.076 202.277 157.076 204.352V233.559C157.076 235.633 158.757 237.315 160.832 237.315H162.339C164.414 237.315 166.095 235.633 166.095 233.559V204.352C166.095 202.277 164.414 200.596 162.339 200.596Z" fill="#535461"/>
<path d="M499.443 464.611C499.443 464.611 489.552 461.26 484.793 469.974C483.538 472.337 482.899 474.978 482.936 477.654C482.973 480.329 483.685 482.951 485.005 485.279C488.119 490.928 494.573 498.266 506.806 497.612C517.158 497.057 520.603 489.159 521.537 481.809C521.895 479.053 521.54 476.252 520.505 473.673C519.471 471.094 517.791 468.823 515.628 467.079C513.464 465.335 510.889 464.176 508.149 463.712C505.409 463.248 502.596 463.496 499.979 464.431L499.443 464.611Z" fill="#FD0054"/>
<path opacity="0.1" d="M487.098 486.064C485.778 483.737 485.066 481.114 485.029 478.439C484.992 475.764 485.631 473.122 486.886 470.76C491.645 462.039 501.536 465.397 501.536 465.397L502.041 465.216C505.812 463.852 509.958 463.945 513.664 465.478C511.619 464.26 509.329 463.511 506.959 463.285C504.59 463.059 502.199 463.361 499.961 464.17L499.456 464.35C499.456 464.35 489.565 460.999 484.806 469.713C483.55 472.076 482.911 474.717 482.948 477.393C482.985 480.068 483.697 482.691 485.018 485.018C487.079 488.755 490.574 493.184 496.229 495.607C492.37 493.321 489.211 490.02 487.098 486.064Z" fill="white"/>
<path opacity="0.2" d="M494.336 468.804C494.336 468.804 498.005 471.688 506.906 468.804H494.336Z" fill="black"/>
<path d="M493.551 447.849C493.551 447.849 499.836 464.873 499.313 469.326L504.296 468.803C504.296 468.803 495.881 453.872 498.005 447.849H493.551Z" fill="#A80038"/>
<path opacity="0.2" d="M493.551 447.849C493.551 447.849 499.836 464.873 499.313 469.326L504.296 468.803C504.296 468.803 495.881 453.872 498.005 447.849H493.551Z" fill="black"/>
<path d="M519.208 449.269C519.208 449.269 509.316 444.212 504.881 448.391C500.446 452.571 499.774 463.253 499.774 463.253C499.774 463.253 515.912 465.477 519.208 449.269Z" fill="#FD0054"/>
<path opacity="0.1" d="M519.208 449.269C519.208 449.269 509.316 444.212 504.881 448.391C500.446 452.571 499.774 463.253 499.774 463.253C499.774 463.253 515.912 465.477 519.208 449.269Z" fill="white"/>
<path d="M499.78 463.254C499.78 463.254 502.377 450.852 519.208 449.27" stroke="#6C63FF" stroke-miterlimit="10"/>
<path d="M571.074 144.339C577.353 130.352 592.383 132.521 602.933 121.395C612.655 111.14 611.951 100.131 622.937 91.2429C632.824 83.2443 641.722 79.0516 652.845 78.3597C662.878 77.7355 666.37 94.4623 677.092 102.38C693.23 114.297 714.277 105.685 724.051 123.204C732.171 137.757 732.962 150.101 723.471 165.872C713.98 181.643 699.778 165.121 682.402 172.245C665.026 179.369 659.486 202.979 646.682 207.916C633.879 212.852 629.276 210.295 618.431 208.265C605.696 205.882 597.761 203.453 588.103 194.816C572.595 180.949 562.553 163.318 571.074 144.339Z" fill="#FBE0E9"/>
<path d="M692.207 27.7115C701.953 23.5501 708.57 31.697 719.144 30.9901C728.889 30.3387 733.692 24.4165 743.438 25.0514C752.209 25.6227 758.694 27.6635 764.668 32.5257C770.056 36.9112 763.99 47.0444 765.725 56.092C768.337 69.7092 783.064 75.2002 779.817 88.6801C777.12 99.8778 771.736 106.519 759.523 110.081C747.31 113.643 747.84 98.5943 735.675 94.0682C723.51 89.5421 709.629 98.9378 700.812 95.4441C691.995 91.9504 690.855 88.494 686.298 82.3794C680.947 75.1996 678.055 70.2465 677.197 61.333C675.82 47.02 678.983 33.3579 692.207 27.7115Z" fill="#FBE0E9"/>
<path d="M797.288 0.325186C804.224 0.475994 805.97 7.12219 812.467 9.55678C818.455 11.8006 822.919 9.56613 828.56 12.5774C833.636 15.2874 836.953 18.2561 839.202 22.7696C841.231 26.8406 834.876 31.2452 833.467 37.1097C831.346 45.9362 838.646 53.1889 833.068 60.3512C828.435 66.3008 823.43 68.8071 815.184 67.6324C806.938 66.4577 811.32 57.6262 805.287 51.6409C799.255 45.6556 788.439 47.5095 784.124 43.0441C779.809 38.5788 780.063 36.2097 778.997 31.332C777.745 25.6046 777.358 21.8695 779.255 16.3219C782.3 7.41397 787.876 0.120557 797.288 0.325186Z" fill="#FBE0E9"/>
<defs>
<linearGradient id="paint0_linear" x1="369.766" y1="543.082" x2="369.766" y2="144.487" gradientUnits="userSpaceOnUse">
<stop stop-color="#808080" stop-opacity="0.25"/>
<stop offset="0.54" stop-color="#808080" stop-opacity="0.12"/>
<stop offset="1" stop-color="#808080" stop-opacity="0.1"/>
</linearGradient>
</defs>
</svg>
