<svg width="580" height="524" viewBox="0 0 580 524" fill="none" xmlns="http://www.w3.org/2000/svg">
<path d="M355.359 491.516C358.472 500.935 352.097 511.51 352.097 511.51C352.097 511.51 340.673 506.815 337.56 497.397C334.447 487.979 340.823 477.404 340.823 477.404C340.823 477.404 352.246 482.098 355.359 491.516Z" fill="#E6E6E6"/>
<path d="M567.983 500.063C562.047 508.011 549.724 508.847 549.724 508.847C549.724 508.847 547.027 496.798 552.963 488.85C558.899 480.902 571.221 480.066 571.221 480.066C571.221 480.066 573.919 492.115 567.983 500.063Z" fill="#E6E6E6"/>
<path d="M447.999 523.349C520.901 523.349 580 519.154 580 513.978C580 508.803 520.901 504.608 447.999 504.608C375.097 504.608 315.999 508.803 315.999 513.978C315.999 519.154 375.097 523.349 447.999 523.349Z" fill="#E6E6E6"/>
<path d="M511.713 0.290771H0.219116V327.793H511.713V0.290771Z" fill="#E6E6E6"/>
<path d="M497.086 41.3667H14.8445V308.417H497.086V41.3667Z" fill="white"/>
<path d="M511.494 0H0V21.7247H511.494V0Z" fill="#FD0054"/>
<path d="M16.1481 15.1333C18.3724 15.1333 20.1756 13.3306 20.1756 11.1068C20.1756 8.88305 18.3724 7.08032 16.1481 7.08032C13.9238 7.08032 12.1206 8.88305 12.1206 11.1068C12.1206 13.3306 13.9238 15.1333 16.1481 15.1333Z" fill="white"/>
<path d="M31.4353 15.1333C33.6597 15.1333 35.4629 13.3306 35.4629 11.1068C35.4629 8.88305 33.6597 7.08032 31.4353 7.08032C29.211 7.08032 27.4078 8.88305 27.4078 11.1068C27.4078 13.3306 29.211 15.1333 31.4353 15.1333Z" fill="white"/>
<path d="M46.7228 15.1333C48.9472 15.1333 50.7503 13.3306 50.7503 11.1068C50.7503 8.88305 48.9472 7.08032 46.7228 7.08032C44.4985 7.08032 42.6953 8.88305 42.6953 11.1068C42.6953 13.3306 44.4985 15.1333 46.7228 15.1333Z" fill="white"/>
<path d="M346.137 64.7883H165.578V82.7275H346.137V64.7883Z" fill="#E6E6E6"/>
<path d="M346.137 107.045H165.578V113.839H346.137V107.045Z" fill="#E6E6E6"/>
<path d="M346.137 127.783H165.578V134.578H346.137V127.783Z" fill="#E6E6E6"/>
<path d="M258.873 148.785H165.578V155.579H258.873V148.785Z" fill="#E6E6E6"/>
<path d="M346.137 170.159H165.578V176.953H346.137V170.159Z" fill="#E6E6E6"/>
<path d="M346.137 191.533H165.578V198.328H346.137V191.533Z" fill="#E6E6E6"/>
<path d="M255.749 212.907H165.578V219.702H255.749V212.907Z" fill="#E6E6E6"/>
<path d="M346.137 234.281H165.578V241.075H346.137V234.281Z" fill="#E6E6E6"/>
<path d="M346.137 255.655H165.578V262.45H346.137V255.655Z" fill="#E6E6E6"/>
<path d="M346.353 281.872H289.334V300.613H346.353V281.872Z" fill="#FD0054"/>
<path d="M357.527 275.387L357.093 275.728L347.079 283.595C347.079 283.595 332.898 298.517 327.674 290.31C322.45 282.102 342.601 272.402 342.601 272.402L350.064 267.179L357.527 275.387Z" fill="#9F616A"/>
<path d="M517.614 285.46C517.614 285.46 511.644 306.352 510.151 307.844L498.956 291.429L504.181 282.476L517.614 285.46Z" fill="#9F616A"/>
<path d="M500.076 288.072L510.524 308.218L505.3 328.364V391.786L510.524 486.546H482.91L456.789 332.84L427.682 486.546H399.322L405.292 388.055L403.8 330.602C403.8 330.602 404.546 297.026 412.009 294.041C419.472 291.056 500.076 288.072 500.076 288.072Z" fill="#2F2E41"/>
<path d="M504.554 482.815L506.793 491.769C506.793 491.769 515.003 497.738 512.764 504.453C510.525 511.169 512.018 514.899 506.793 516.392C501.569 517.884 484.403 520.122 485.15 512.661C485.896 505.199 485.15 489.53 485.15 489.53L487.389 484.307L504.554 482.815Z" fill="#2F2E41"/>
<path d="M406.039 482.815L403.8 491.769C403.8 491.769 395.59 497.738 397.829 504.453C400.068 511.169 398.575 514.899 403.8 516.392C409.024 517.884 426.189 520.122 425.443 512.661C424.697 505.2 425.443 489.53 425.443 489.53L423.204 484.307L406.039 482.815Z" fill="#2F2E41"/>
<path d="M434.772 128.156C449.132 128.156 460.774 116.518 460.774 102.162C460.774 87.805 449.132 76.1667 434.772 76.1667C420.412 76.1667 408.771 87.805 408.771 102.162C408.771 116.518 420.412 128.156 434.772 128.156Z" fill="#9F616A"/>
<path d="M454.946 113.367L458.532 142.947H426.255L428.945 117.848L454.946 113.367Z" fill="#9F616A"/>
<path d="M392.978 154.885C392.978 154.885 425.07 133.247 440.743 133.247C456.416 133.247 495.971 141.454 501.942 151.154L497.464 255.614C497.464 255.614 507.912 271.283 501.942 277.253C495.971 283.222 503.061 295.533 503.061 295.533C503.061 295.533 456.416 292.922 440.743 299.637C425.07 306.352 406.412 299.637 406.412 299.637C406.412 299.637 414.248 289.564 406.785 286.579C399.322 283.595 411.263 235.842 411.263 235.842L407.904 205.623L392.978 154.885Z" fill="#A80038"/>
<path d="M495.225 151.154L500.822 150.035C500.822 150.035 537.019 208.607 534.78 221.292C532.541 233.976 518.361 291.429 518.361 291.429L498.956 286.206L510.151 231.738L492.239 186.223L495.225 151.154Z" fill="#A80038"/>
<path d="M401.188 157.87L393.351 154.512C392.066 158.048 390.531 161.488 388.759 164.807C379.501 182.215 376.559 239.199 376.559 239.199L344.467 266.06L355.661 282.476C355.661 282.476 397.43 258.281 404.173 244.422C409.805 232.848 409.024 191.819 409.024 191.819L401.188 157.87Z" fill="#A80038"/>
<path d="M456.029 119.973C456.029 119.973 482.422 101.125 468.597 78.5078C459.006 62.817 439.131 64.059 427.858 66.2915C424.82 66.8519 421.965 68.1424 419.538 70.0518C417.11 71.9611 415.184 74.4319 413.924 77.2512C412.039 81.6491 412.039 86.047 419.58 86.047C434.662 86.047 427.121 97.3557 427.121 97.3557C427.121 97.3557 437.176 99.8688 434.662 108.664C432.149 117.46 456.029 119.973 456.029 119.973Z" fill="#2F2E41"/>
</svg>
