<svg width="1920" height="519" viewBox="0 0 1920 519" fill="none" xmlns="http://www.w3.org/2000/svg">
<path fill-rule="evenodd" clip-rule="evenodd" d="M0 230.92L27.2 192.509C52.8 154.098 107.2 77.2769 160 106.085C212.8 134.893 267.2 269.33 320 298.138C372.8 326.946 427.2 250.125 480 221.317C532.8 192.509 587.2 211.714 640 173.304C692.8 134.893 747.2 38.8662 800 10.0581C852.8 -18.7499 907.2 19.6608 960 58.0715C1012.8 96.4822 1067.2 134.893 1120 163.701C1172.8 192.509 1227.2 211.714 1280 202.112C1332.8 192.509 1387.2 154.098 1440 154.098C1492.8 154.098 1547.2 192.509 1600 182.906C1652.8 173.304 1707.2 115.688 1760 125.29C1812.8 134.893 1867.2 211.714 1892.8 250.125L1920 288.536V519H1892.8C1867.2 519 1812.8 519 1760 519C1707.2 519 1652.8 519 1600 519C1547.2 519 1492.8 519 1440 519C1387.2 519 1332.8 519 1280 519C1227.2 519 1172.8 519 1120 519C1067.2 519 1012.8 519 960 519C907.2 519 852.8 519 800 519C747.2 519 692.8 519 640 519C587.2 519 532.8 519 480 519C427.2 519 372.8 519 320 519C267.2 519 212.8 519 160 519C107.2 519 52.8 519 27.2 519H0V230.92Z" fill="#FD0054"/>
</svg>
