<svg width="32" height="32" viewBox="0 0 32 32" fill="none" xmlns="http://www.w3.org/2000/svg">
<path d="M14.8749 2.93719C14.174 3.16405 12.488 4.0488 11.3514 5.77293C10.2148 7.49705 10.5368 9.1758 10.8399 9.79966C12.3744 9.87528 14.7613 10.1399 17.7165 11.5578C17.5348 11.3584 17.3358 11.1504 17.1278 10.933C15.3839 9.11062 13.0064 6.626 14.8749 2.93719Z" fill="#1515D6"/>
<path fill-rule="evenodd" clip-rule="evenodd" d="M6.74808 15.3577C3.47461 12.7261 3.79287 8.51413 4.36118 6.73707C4.47484 6.86941 4.9445 7.69859 5.44097 8.21165C6.82164 9.63846 8.0552 10.14 10.1011 10.2534C12.147 10.3668 13.9088 10.8205 15.5001 11.331C16.7731 11.7393 18.6447 12.7866 19.4214 13.2593C19.4214 13.2593 19.4782 10.3668 19.6487 9.96981C19.8192 9.5728 20.4103 8.7788 21.4105 8.7788C22.4107 8.7788 22.8123 9.25142 22.8881 9.51609H23.7406C23.7044 9.60624 23.5994 9.69525 23.4729 9.80243C23.2014 10.0324 22.8313 10.346 22.8313 10.934C22.8313 11.3987 22.8313 11.6524 22.8997 11.8863C22.9819 12.1676 23.1631 12.42 23.5622 12.9762C23.6006 13.0298 23.6411 13.0863 23.6837 13.1458C24.3657 14.0986 24.7257 15.1686 24.8204 15.5846C25.1235 16.9457 25.0363 19.9969 22.263 21.3127C22.1353 21.3733 22.0084 21.4334 21.8822 21.4933C18.5803 23.0584 15.7762 24.3875 14.0793 26.1902C12.7092 27.6457 12.2843 29.916 12.6271 30.9792C12.6418 31.0246 12.6106 31.0735 12.5631 31.0789C9.90788 31.3794 9.71177 30.3795 9.65159 30.0726C9.65073 30.0683 9.64989 30.064 9.64908 30.0599L9.64647 30.0468C9.601 29.8199 9.77908 29.4229 9.87379 29.2528C7.08907 29.1961 6.00928 28.1752 5.89562 27.7215C5.80469 27.3585 6.38815 26.8519 6.69125 26.6439C5.09984 26.043 3.97635 24.6164 3.57102 23.8719C3.54312 23.8207 3.58781 23.7619 3.64579 23.7692C10.3785 24.6165 14.0693 21.4895 15.3864 19.668C10.8968 19.8949 7.08907 17.7964 6.74808 15.3577ZM22.263 9.85638C22.263 9.98167 22.1612 10.0832 22.0356 10.0832C21.9101 10.0832 21.8083 9.98167 21.8083 9.85638C21.8083 9.73109 21.9101 9.62952 22.0356 9.62952C22.1612 9.62952 22.263 9.73109 22.263 9.85638Z" fill="#1515D6"/>
<path d="M22.5632 4.395C22.4227 4.5502 22.348 4.74176 22.3374 4.93567C22.1665 4.83519 21.9615 4.79008 21.7502 4.82096C21.4695 4.86196 21.2382 5.02809 21.1043 5.25456C21.2976 5.43323 21.567 5.52621 21.8476 5.48521C22.0678 5.45305 22.2576 5.34386 22.3938 5.18895C22.5154 5.38499 22.6316 5.6374 22.7414 5.92986C22.5648 5.83656 22.3581 5.79647 22.1454 5.82754C21.8419 5.87188 21.5917 6.05154 21.447 6.29644C21.656 6.48966 21.9473 6.59021 22.2508 6.54588C22.4906 6.51084 22.6972 6.39128 22.8447 6.22179C22.957 6.55785 23.0608 6.93041 23.1556 7.31787C23.0138 7.18621 22.8316 7.09533 22.6254 7.067C22.3215 7.02526 22.0311 7.1283 21.8238 7.32331C21.9706 7.56696 22.2223 7.74447 22.5262 7.78621C22.7829 7.82147 23.03 7.75339 23.2255 7.61383C23.2366 7.66207 23.2475 7.71044 23.2582 7.75892C23.5038 8.86537 23.6748 10.0202 23.757 10.7451L23.7657 10.8218L23.9193 10.8044L23.9106 10.7277C23.8279 9.99856 23.6561 8.83831 23.4092 7.72557C23.3952 7.66263 23.381 7.59982 23.3666 7.53725C23.6106 7.57507 23.8688 7.52106 24.0849 7.36597C24.3339 7.18725 24.4732 6.91285 24.4888 6.62895C24.2141 6.55338 23.9091 6.59787 23.6601 6.77658C23.4848 6.90247 23.3638 7.07584 23.3021 7.26656C23.2063 6.87598 23.101 6.49947 22.9867 6.15917C23.2472 6.15466 23.505 6.04681 23.6931 5.83894C23.8987 5.61181 23.9769 5.31425 23.9321 5.03346C23.6476 5.01743 23.3589 5.12515 23.1533 5.35228C23.0036 5.51766 22.9215 5.72037 22.9052 5.92677C22.7894 5.61161 22.6642 5.33355 22.5298 5.115C22.724 5.08572 22.9096 4.99186 23.0515 4.83517C23.2374 4.62973 23.3081 4.36061 23.2676 4.10664C23.0103 4.09214 22.7492 4.18957 22.5632 4.395Z" fill="#1515D6"/>
</svg>
