<svg width="144" height="144" viewBox="0 0 144 144" fill="none" xmlns="http://www.w3.org/2000/svg">
<path d="M79.0493 15.4324C78.8847 18.1116 77.327 19.4715 75.4562 19.3562C73.5853 19.241 72.2058 17.7002 72.3704 15.021C72.535 12.3418 74.0926 10.9819 75.9635 11.0971C77.8344 11.2124 79.2138 12.7532 79.0493 15.4324Z" fill="#1515D6"/>
<path d="M106.64 24.7087C105.54 23.9066 104.22 24.2733 103.446 25.2004L107.009 27.7998C107.781 26.7394 107.682 25.4692 106.64 24.7087Z" fill="#1515D6"/>
<path d="M119.142 42.1366C117.711 42.9648 116.961 44.2853 117.707 45.5783C118.423 46.8189 119.863 46.8943 121.382 46.0156C122.882 45.147 123.511 43.8972 122.785 42.6392C122.028 41.3287 120.556 41.3185 119.142 42.1366Z" fill="#1515D6"/>
<path d="M121.993 54.98C121.692 54.0804 121.876 53.2952 122.66 53.0328C123.52 52.7448 124.05 53.4399 124.458 54.282C124.474 54.3157 124.492 54.3536 124.512 54.3949C124.757 54.9169 125.259 55.9873 125.531 56.0935L124.499 56.4391C123.581 56.7463 122.44 56.3198 121.993 54.98Z" fill="#1515D6"/>
<path d="M124.158 80.828C124.418 79.2549 125.888 78.762 127.419 79.0156C128.95 79.2691 130.204 80.2131 129.944 81.7862C129.685 83.3592 128.194 83.8488 126.663 83.5953C125.132 83.3417 123.898 82.401 124.158 80.828Z" fill="#1515D6"/>
<path d="M113.181 105.266C113.782 104.533 114.544 104.272 115.183 104.797C115.883 105.374 115.577 106.192 115.082 106.987C115.062 107.018 115.039 107.053 115.015 107.092C114.703 107.577 114.065 108.572 114.12 108.859L113.279 108.168C112.531 107.553 112.285 106.358 113.181 105.266Z" fill="#1515D6"/>
<path d="M102.816 115.019C104.111 114.091 105.499 114.784 106.402 116.047C107.306 117.311 107.525 118.866 106.231 119.794C104.936 120.723 103.537 120.013 102.633 118.75C101.73 117.486 101.522 115.947 102.816 115.019Z" fill="#1515D6"/>
<path d="M91.757 125.46L93.109 129.582L91.0218 130.269C89.4277 130.793 88.5336 130.12 88.1468 128.941C87.7601 127.762 88.0756 126.67 89.6506 126.152L91.757 125.46Z" fill="#1515D6"/>
<path d="M83.7575 127.443C83.8819 128.645 83.2243 129.848 81.8834 130.079C80.6121 130.298 79.6339 129.483 79.4122 128.19L83.7575 127.443Z" fill="#1515D6"/>
<path d="M73.9565 124.883C74.9034 124.859 75.5991 125.266 75.6197 126.093C75.6423 127.001 74.8233 127.304 73.8994 127.448L73.7782 127.465L73.7759 127.466C73.2055 127.547 72.0364 127.714 71.8553 127.943L71.8282 126.854C71.804 125.885 72.5461 124.918 73.9565 124.883Z" fill="#1515D6"/>
<path d="M60.1302 127.278C59.7498 128.425 58.6561 129.251 57.3392 128.909C56.0906 128.585 55.5336 127.44 55.8625 126.17L60.1302 127.278Z" fill="#1515D6"/>
<path d="M49.1064 119.608C49.9543 120.031 50.3789 120.716 50.0105 121.457C49.6061 122.27 48.7406 122.154 47.8568 121.848C47.8217 121.836 47.7824 121.822 47.7394 121.806C47.1975 121.611 46.086 121.21 45.8189 121.328L46.3042 120.352C46.7356 119.485 47.8435 118.978 49.1064 119.608Z" fill="#1515D6"/>
<path d="M36.2797 110.791C37.371 111.809 37.0385 113.292 35.912 114.503C34.7992 115.699 33.3881 116.12 32.282 115.088C31.2202 114.098 31.4565 112.719 32.638 111.449C33.8332 110.164 35.2326 109.814 36.2797 110.791Z" fill="#1515D6"/>
<path d="M23.9945 93.5979C24.6485 95.0516 23.697 96.2778 22.2821 96.9161C20.8671 97.5545 19.3011 97.4641 18.6471 96.0105C17.993 94.5568 18.9629 93.3223 20.3778 92.684C21.7928 92.0456 23.3404 92.1443 23.9945 93.5979Z" fill="#1515D6"/>
<path d="M14.3903 52.3585L18.1772 53.7997L18.9648 51.7245C19.552 50.1775 19.0746 49.3049 17.9159 48.8639C16.7573 48.423 15.7651 48.7363 15.1708 50.3021L14.3903 52.3585Z" fill="#1515D6"/>
<path d="M21.183 43.2838C20.5154 44.4708 21.0326 45.7412 22.0424 46.4033L24.206 42.5566C23.0645 41.9128 21.816 42.1584 21.183 43.2838Z" fill="#1515D6"/>
<path d="M31.3477 34.3045C32.4372 35.4112 33.9162 35.8783 35.05 34.759C36.1838 33.6396 35.7383 32.1522 34.6487 31.0456C33.5592 29.9389 32.0661 29.4574 30.9323 30.5768C29.7984 31.6961 30.2581 33.1979 31.3477 34.3045Z" fill="#1515D6"/>
<path d="M56.7438 21.6709C55.221 22.1365 54.1268 21.0361 53.6735 19.5498C53.2203 18.0635 53.5081 16.5195 55.031 16.0539C56.5538 15.5882 57.6539 16.7079 58.1071 18.1942C58.5603 19.6805 58.2666 21.2052 56.7438 21.6709Z" fill="#1515D6"/>
<path fill-rule="evenodd" clip-rule="evenodd" d="M144 72C144 111.765 111.765 144 72 144C32.2355 144 0 111.765 0 72C0 32.2355 32.2355 0 72 0C111.765 0 144 32.2355 144 72ZM72 115.268C95.8965 115.268 115.268 95.8965 115.268 72C115.268 48.1035 95.8965 28.7316 72 28.7316C70.5858 28.7316 69.1875 28.7994 67.8081 28.932C61.8309 40.7944 69.4633 48.787 75.0626 54.6506L75.063 54.651L75.0633 54.6514C75.7315 55.3511 76.3708 56.0205 76.9544 56.6625C67.4577 52.0968 59.7872 51.2445 54.8562 51.001C53.8822 48.992 52.8473 43.5862 56.4999 38.0342C60.0899 32.5774 65.3854 29.7316 67.7044 28.9421C55.3881 30.156 44.5886 36.5341 37.5008 45.8816L37.5063 45.8873C41.9432 50.4819 45.9073 52.0967 52.482 52.462C59.0567 52.8273 64.7182 54.2883 69.8318 55.932C73.9228 57.2469 79.9374 60.6195 82.4333 62.1414C82.4333 62.1414 82.6159 52.8273 83.1638 51.5489C83.7117 50.2705 85.6111 47.7136 88.8254 47.7136C92.0397 47.7136 93.3302 49.2355 93.5737 50.0878H96.0292C95.8254 48.8687 95.5804 47.5664 95.2975 46.2888C95.2781 46.201 95.2585 46.1134 95.2387 46.026C95.2292 45.9843 95.2198 45.9426 95.2103 45.901C94.6978 46.2745 94.0462 46.4578 93.369 46.3646C92.5771 46.2556 91.921 45.792 91.5383 45.1557C92.0787 44.6464 92.8356 44.3773 93.6275 44.4863C94.1788 44.5622 94.6643 44.8099 95.0375 45.1682C94.7873 44.1399 94.5126 43.1509 94.2151 42.2603C93.8297 42.7128 93.285 43.0325 92.6512 43.1253C91.8603 43.2411 91.1011 42.9785 90.5563 42.4739C90.9336 41.8343 91.5856 41.3651 92.3766 41.2493C92.9423 41.1665 93.4918 41.2773 93.9581 41.5317C93.6681 40.7549 93.3606 40.0844 93.0385 39.565C92.6826 39.9783 92.1821 40.2702 91.6005 40.3553C90.8691 40.4624 90.1671 40.2196 89.6633 39.753C90.0122 39.1615 90.6152 38.7276 91.3465 38.6206C91.8973 38.5399 92.4315 38.6577 92.8769 38.9202C92.9046 38.4137 93.0993 37.9135 93.4654 37.5081C93.9501 36.9716 94.6307 36.7172 95.3012 36.7551C95.4068 37.4183 95.2226 38.1212 94.738 38.6577C94.3628 39.073 93.8702 39.3193 93.3557 39.3918C93.7131 39.9721 94.0456 40.7155 94.3531 41.5598C94.3857 41.0031 94.6008 40.4537 95.0033 40.0081C95.5392 39.4149 96.2916 39.1336 97.033 39.1755C97.1497 39.9088 96.9461 40.6859 96.4103 41.2791C95.9146 41.8278 95.2335 42.1097 94.5473 42.1157C94.8489 43.0152 95.1268 44.0121 95.3792 45.0462C95.5358 44.5329 95.8554 44.0651 96.3244 43.7278C96.9733 43.2611 97.7682 43.1449 98.484 43.3423C98.4434 44.0837 98.0804 44.8003 97.4314 45.2671C96.8616 45.6769 96.1793 45.8164 95.5368 45.7108C95.5564 45.7957 95.5758 45.8808 95.5951 45.9659C95.6135 46.0474 95.6317 46.1291 95.6498 46.2108C96.2931 49.1159 96.7408 52.1453 96.9563 54.049L96.9766 54.2283L96.618 54.2689L96.5977 54.0896C96.487 53.1116 96.3146 51.8341 96.0855 50.4292C95.9235 50.6104 95.701 50.7993 95.4529 51.0099C94.5806 51.7503 93.3911 52.7601 93.3911 54.6536C93.3911 56.15 93.3911 56.9671 93.6108 57.7201C93.8751 58.6259 94.4572 59.4389 95.7396 61.2296L95.7398 61.23C95.8635 61.4027 95.9936 61.5844 96.1306 61.7761C98.3221 64.8443 99.4788 68.2899 99.7832 69.6292C100.757 74.0124 100.477 83.8379 91.5648 88.0749C91.1547 88.2699 90.7468 88.4636 90.3412 88.6562C79.7304 93.696 70.7191 97.9762 65.2661 103.781C62.6044 106.615 61.0527 110.407 60.4852 113.719C64.1515 114.729 68.0128 115.268 72 115.268ZM36.2499 96.3813C55.0381 97.2885 65.5379 88.2226 69.4666 82.7786C55.0388 83.5091 41.7068 73.2828 41.7068 68.8987C36.1186 64.3971 33.7876 58.4593 33.104 53.0237C30.3034 58.7532 28.7316 65.193 28.7316 72C28.7316 81.0433 31.5059 89.4386 36.2499 96.3813ZM91.5648 51.1836C91.5648 51.5871 91.2377 51.9141 90.8343 51.9141C90.4308 51.9141 90.1038 51.5871 90.1038 51.1836C90.1038 50.7801 90.4308 50.4531 90.8343 50.4531C91.2377 50.4531 91.5648 50.7801 91.5648 51.1836ZM80.2563 15.5067C80.4567 12.2434 78.6706 10.0911 76.0353 9.92879C73.4 9.76646 71.3639 11.6833 71.1634 14.9467C70.9629 18.21 72.7491 20.3623 75.3844 20.5246C78.0197 20.6869 80.0558 18.7701 80.2563 15.5067ZM83.2551 16.7347C83.5666 15.419 84.5572 14.866 85.6652 15.1291C86.7389 15.384 87.2248 16.2409 86.9446 17.4241L85.8286 22.1371L86.9856 22.4119L88.1203 17.6203C88.576 15.6958 87.7698 14.5295 86.2451 14.1675C85.1076 13.8974 84.2807 14.2404 83.7464 14.9224L83.6483 14.8991L83.9273 13.7209L82.8095 13.4554L81.0238 20.9963L82.1809 21.2711L83.2551 16.7347ZM92.8606 13.489L91.7356 13.1031L88.3913 22.8787L89.5163 23.2646L92.8606 13.489ZM90.9957 23.7973L92.1007 24.2375L94.9617 17.0365L93.8568 16.5963L90.9957 23.7973ZM95.98 15.1832C95.8161 15.5957 95.3262 15.7915 94.8954 15.6199C94.4647 15.4483 94.243 14.969 94.4069 14.5565C94.5708 14.1439 95.0608 13.9481 95.4915 14.1197C95.9222 14.2913 96.1439 14.7706 95.98 15.1832ZM99.4447 20.2437C98.4365 19.7136 97.3399 20.0033 96.7122 21.2006L94.548 25.3284L93.4951 24.7749L97.0928 17.9131L98.1099 18.4478L97.5478 19.52L97.637 19.5669C98.3236 19.0389 99.2096 18.912 100.245 19.4561C101.632 20.1855 102.124 21.5156 101.206 23.2668L98.92 27.6268L97.8672 27.0733L100.116 22.7847C100.68 21.7081 100.422 20.7573 99.4447 20.2437ZM106.299 30.6274C105.317 31.3597 103.926 31.3186 102.655 30.3918C100.847 29.0728 100.677 26.976 102.077 25.0511C103.477 23.1261 105.574 22.6083 107.269 23.8441C108.572 24.7947 109.375 26.604 107.678 28.9369L107.382 29.3447L102.84 26.0324C101.909 27.4069 102.156 28.7043 103.284 29.5272C104.038 30.0767 104.841 30.1634 105.56 29.6891L106.299 30.6274ZM116.017 28.1531L116.894 29.0442L109.546 36.2989L108.668 35.4078L116.017 28.1531ZM118.02 35.6671C117.31 34.7759 116.189 34.5998 115.134 35.4434L111.495 38.352L110.754 37.4214L116.802 32.5864L117.519 33.4854L116.574 34.2409L116.637 34.3198C117.477 34.1126 118.34 34.3531 119.069 35.2679C120.046 36.4942 119.963 37.9101 118.42 39.1441L114.576 42.2164L113.834 41.2858L117.615 38.2639C118.564 37.5052 118.709 36.5307 118.02 35.6671ZM118.936 47.2524C118.416 47.2391 117.417 47.2136 116.701 45.9739C115.733 44.2965 116.401 42.348 118.53 41.1158C120.641 39.8937 122.661 40.2867 123.639 41.9815C124.341 43.1972 123.9 44.0308 123.659 44.4876C123.64 44.5233 123.623 44.5566 123.607 44.5877L123.657 44.675L126.955 42.7661L127.55 43.797L118.616 48.9683L118.041 47.9723L119.071 47.3764L119 47.2541C118.98 47.2535 118.958 47.253 118.936 47.2524ZM119.727 51.5782L119.242 50.4908L126.31 47.3324L126.795 48.4198L119.727 51.5782ZM127.734 47.3589C127.923 47.7828 128.411 47.9849 128.816 47.804C129.22 47.623 129.396 47.1248 129.207 46.7009C129.018 46.277 128.53 46.0749 128.126 46.2559C127.721 46.4368 127.545 46.935 127.734 47.3589ZM120.922 55.1469C121.35 56.4294 122.262 56.8688 122.817 56.9385L122.836 56.9959L121.842 57.3288L122.219 58.458L127.055 56.8387C129.387 56.0578 129.06 54.1882 128.747 53.2503C128.376 52.1402 127.572 51.0049 126.042 50.8787L126.018 52.0786C126.636 52.1482 127.406 52.5448 127.766 53.6214C128.112 54.6598 127.734 55.3558 126.793 55.671L126.754 55.6838C126.301 55.8356 126.13 55.4656 125.728 54.5983L125.727 54.5965C125.646 54.422 125.556 54.2274 125.452 54.0129C124.82 52.7084 124.022 51.321 122.34 51.8843C120.907 52.3643 120.455 53.7497 120.922 55.1469ZM127.325 60.1568C128.653 59.9125 129.557 60.5978 129.763 61.7193C129.963 62.8061 129.375 63.5965 128.181 63.8161L123.423 64.6912L123.638 65.8623L128.475 64.9727C130.417 64.6154 131.159 63.4069 130.876 61.8635C130.665 60.7122 130.018 60.0924 129.179 59.8773L129.161 59.778L130.351 59.5593L130.143 58.4278L122.531 59.8279L122.746 60.999L127.325 60.1568ZM134.252 74.9589L126.877 74.8112C125.592 74.7855 124.914 74.1562 124.936 73.0767C124.955 72.093 125.544 71.3932 126.42 71.4108L126.445 70.1799C124.858 70.1481 123.861 71.3595 123.827 73.0545C123.791 74.8504 124.872 76.0226 126.852 76.0622L134.227 76.21L134.252 74.9589ZM123.104 80.6534C122.762 82.7243 124.103 84.3782 126.469 84.7701C128.855 85.1652 130.656 84.0315 130.998 81.9607C131.34 79.8899 130 78.2359 127.613 77.8408C125.247 77.4489 123.446 78.5826 123.104 80.6534ZM123.893 90.7709C122.513 90.3201 122.225 89.0582 122.5 88.214C122.806 87.2739 123.715 86.8277 124.788 87.1783L129.386 88.6809L129.755 87.5489L125.08 86.0213C123.202 85.4077 121.977 86.1111 121.526 87.4926C121.164 88.6054 121.52 89.5286 122.155 90.1181L122.13 90.1949L120.884 89.7879L120.516 90.9199L127.873 93.3241L128.242 92.1921L123.893 90.7709ZM119.974 92.2701L119.476 93.3512L123.923 95.4064C124.874 95.8462 125.223 96.9189 124.75 97.9451C124.617 98.2337 124.425 98.5061 124.373 98.571L125.471 99.0784C125.537 98.9589 125.677 98.6791 125.751 98.5188C126.14 97.6759 126.002 96.723 125.425 96.1451L125.458 96.0718L126.52 96.5623L127.001 95.5178L119.974 92.2701ZM121.363 99.8331C122.515 100.539 122.732 101.653 122.138 102.626C121.562 103.569 120.598 103.765 119.562 103.13L115.435 100.602L114.815 101.618L119.01 104.188C120.695 105.22 122.052 104.816 122.87 103.477C123.48 102.478 123.412 101.585 122.931 100.864L122.983 100.778L124.015 101.41L124.614 100.429L118.012 96.3844L117.392 97.4001L121.363 99.8331ZM112.47 104.447C111.613 105.492 111.726 106.499 111.962 107.006L111.924 107.053L111.114 106.387L110.359 107.307L114.299 110.548C116.199 112.111 117.607 110.84 118.234 110.076C118.976 109.171 119.509 107.886 118.802 106.521L117.775 107.138C118.044 107.7 118.118 108.563 117.399 109.441C116.705 110.287 115.915 110.336 115.148 109.705L115.116 109.679C114.747 109.375 114.969 109.033 115.489 108.232C115.594 108.07 115.711 107.889 115.838 107.687C116.605 106.457 117.355 105.043 115.984 103.916C114.816 102.955 113.404 103.308 112.47 104.447ZM115.77 116.53L116.611 115.688L109.314 108.381L108.473 109.223L115.77 116.53ZM102.194 114.149C100.49 115.371 100.27 117.49 101.666 119.443C103.074 121.412 105.149 121.886 106.853 120.664C108.557 119.442 108.777 117.323 107.369 115.354C105.973 113.401 103.899 112.928 102.194 114.149ZM99.1784 125.34L100.7 124.509L101.076 125.2C101.443 125.873 101.353 126.382 100.663 126.759C100.389 126.908 100.186 126.943 100.057 126.965L100.037 126.969L100.021 126.971L100.213 128.039C100.411 128.023 100.787 127.956 101.3 127.675C102.273 127.144 102.893 126.047 102.256 124.878L101.744 123.938L102.841 123.339L102.358 122.453L101.261 123.053L98.0379 117.135L96.994 117.705L100.218 123.623L98.6958 124.454L99.1784 125.34ZM91.4224 120.429L90.2352 120.819L91.4112 124.405L89.2665 125.11C86.983 125.861 86.4096 127.59 86.9787 129.325C87.5478 131.06 89.0267 132.093 91.3294 131.336L94.6421 130.246L91.4224 120.429ZM80.5908 123.257C79.0414 123.523 78.0422 124.494 77.8825 125.709L79.0693 125.832C79.2308 124.986 79.8529 124.469 80.7716 124.311C82.1472 124.075 83.2484 124.802 83.5836 126.428L78.0464 127.38L78.1317 127.878C78.6195 130.722 80.4751 131.406 82.0642 131.133C84.1301 130.778 85.221 128.911 84.8185 126.564C84.416 124.217 82.7958 122.878 80.5908 123.257ZM74.1111 123.809C72.7612 123.842 72.0741 124.586 71.8449 125.097L71.7844 125.098L71.7583 124.049L70.5695 124.079L70.6967 129.183C70.7581 131.645 72.639 131.881 73.6263 131.856C74.7949 131.827 76.1147 131.39 76.6839 129.962L75.5455 129.587C75.2977 130.159 74.6932 130.779 73.5598 130.808C72.4667 130.835 71.9133 130.268 71.8885 129.275L71.8875 129.234C71.8756 128.756 72.2791 128.7 73.2251 128.57L73.2278 128.57L73.2316 128.569L73.2328 128.569L73.2357 128.569C73.4237 128.543 73.6331 128.514 73.8646 128.478C75.2956 128.256 76.8542 127.899 76.81 126.124C76.7722 124.61 75.582 123.772 74.1111 123.809ZM66.0509 123.504C64.3485 123.312 63.1097 124.229 62.7561 125.57L63.9378 125.703C64.2528 124.886 65.0101 124.463 65.9314 124.567C67.3335 124.725 68.104 125.99 67.9035 127.775C67.7074 129.52 66.6576 130.559 65.2756 130.403C64.2341 130.286 63.6854 129.574 63.584 128.852L62.4023 128.719C62.4403 130.185 63.5539 131.286 65.1762 131.469C67.2592 131.703 68.826 130.214 69.0897 127.868C69.3488 125.562 68.214 123.748 66.0509 123.504ZM58.9628 122.159C57.4411 121.763 56.1317 122.236 55.487 123.278L56.5181 123.88C57.0132 123.174 57.7923 122.96 58.6946 123.194C60.0457 123.545 60.7508 124.661 60.3883 126.282L54.95 124.869L54.8235 125.358C54.0999 128.151 55.5103 129.539 57.071 129.945C59.1 130.472 60.8611 129.219 61.4582 126.914C62.0553 124.609 61.1284 122.721 58.9628 122.159ZM49.745 118.732C48.5363 118.129 47.5814 118.464 47.1402 118.808L47.0861 118.781L47.5534 117.841L46.489 117.31L44.2153 121.881C43.119 124.085 44.6709 125.175 45.5549 125.616C46.6012 126.137 47.9717 126.37 49.142 125.376L48.3114 124.51C47.8253 124.899 47.0009 125.164 45.9861 124.658C45.0074 124.17 44.7832 123.41 45.2258 122.52L45.2438 122.484C45.4569 122.056 45.8394 122.196 46.7362 122.524C46.9171 122.59 47.1188 122.664 47.3443 122.743C48.7129 123.217 50.2571 123.632 51.0479 122.042C51.7219 120.687 51.062 119.389 49.745 118.732ZM41.6467 119.761C40.8791 120.874 39.7556 121.029 38.8187 120.381C37.9108 119.753 37.769 118.778 38.4593 117.777L41.2088 113.792L40.2304 113.115L37.4351 117.167C36.3123 118.794 36.6403 120.174 37.9296 121.066C38.8914 121.731 39.7862 121.712 40.5315 121.271L40.6144 121.329L39.927 122.325L40.8722 122.979L45.2715 116.603L44.2931 115.926L41.6467 119.761ZM37.1258 110.118C36.0793 109.142 35.1163 109.411 34.6155 109.55L34.5905 109.557C34.5779 109.56 34.5656 109.564 34.5536 109.567L34.4503 109.471L35.2609 108.6L34.4202 107.815L27.3865 115.377L28.2566 116.188L30.8531 113.397L30.9268 113.466C30.9231 113.487 30.919 113.509 30.9146 113.532L30.9061 113.577C30.8087 114.084 30.6311 115.01 31.6571 115.967C33.0877 117.302 35.1336 117.086 36.7959 115.299C38.4719 113.498 38.5416 111.439 37.1258 110.118ZM20.5865 100.988C19.0329 102.477 18.9249 104.581 20.0704 106.315C21.5273 108.52 24.2815 108.994 27.0046 107.19C29.7276 105.386 30.3688 102.662 28.9119 100.457C27.7664 98.7233 25.79 97.9999 23.8138 98.8494L24.5033 99.8929C25.8636 99.3547 27.1807 99.9583 27.937 101.103C28.9713 102.668 28.5729 104.699 26.3373 106.18C24.1017 107.661 22.0796 107.234 21.0453 105.669C20.2891 104.524 20.2494 103.074 21.276 102.031L20.5865 100.988ZM24.9684 93.1586C24.1074 91.2449 22.0761 90.6118 19.8894 91.5983C17.6842 92.5932 16.8121 94.5362 17.6731 96.4499C18.5342 98.3635 20.5654 98.9966 22.7705 98.0018C24.9573 97.0152 25.8294 95.0722 24.9684 93.1586ZM18.2627 89.1309C16.9616 89.4929 15.9998 88.8913 15.6949 87.7926C15.3994 86.728 15.9142 85.8883 17.0842 85.5627L21.7448 84.2658L21.4264 83.1185L16.6882 84.437C14.7851 84.9666 14.1543 86.2366 14.5739 87.7485C14.8869 88.8763 15.5861 89.4358 16.4406 89.5751L16.4675 89.6723L15.3024 89.9965L15.61 91.1049L23.0669 89.0299L22.7486 87.8827L18.2627 89.1309ZM13.0311 79.4588L13.2984 81.1737L12.5218 81.295C11.765 81.4133 11.317 81.1565 11.1958 80.3788C11.1477 80.0701 11.1837 79.8669 11.2065 79.738L11.2092 79.7225L11.2127 79.7021L10.1443 79.5218C10.0926 79.7137 10.0291 80.0913 10.1192 80.6696C10.2901 81.7663 11.112 82.7205 12.4263 82.5151L13.4818 82.3502L13.6744 83.5865L14.6701 83.4309L14.4775 82.1946L21.1287 81.1552L20.9454 79.9787L14.2941 81.0181L14.0268 79.3032L13.0311 79.4588ZM10.2177 76.9204L10.319 78.1068L20.6008 77.226L20.4995 76.0395L10.2177 76.9204ZM20.4038 74.4611L20.3682 73.2708L12.6321 73.5032L12.6678 74.6935L20.4038 74.4611ZM10.5291 73.3039C10.9723 73.2906 11.3464 73.663 11.3603 74.127C11.3742 74.591 11.0231 74.9852 10.5798 74.9985C10.1366 75.0118 9.76252 74.6394 9.74862 74.1754C9.73472 73.7114 10.0859 73.3172 10.5291 73.3039ZM18.3723 65.4526C19.7283 65.7363 20.7069 66.9273 20.6043 68.6397C20.4739 70.8155 18.7244 72.0448 16.4107 71.9058C14.0568 71.7644 12.4903 70.2752 12.6159 68.18C12.7137 66.5481 13.753 65.3773 15.2136 65.2628L15.1424 66.4515C14.4274 66.5905 13.7462 67.1763 13.6834 68.2239C13.6001 69.614 14.6913 70.6096 16.4417 70.7147C18.2323 70.8223 19.4535 69.9859 19.538 68.5756C19.5935 67.6489 19.1328 66.9136 18.3011 66.6412L18.3723 65.4526ZM13.6252 61.5869L13.9077 59.9563L14.9006 60.1288L14.6181 61.7594L19.0664 62.5321C20.0593 62.7046 20.3043 62.235 20.3939 61.718C20.4338 61.4879 20.4285 61.3311 20.425 61.2269C20.4246 61.214 20.4242 61.2019 20.4239 61.1906L21.5177 61.1348C21.5497 61.3043 21.5809 61.5965 21.5052 62.0339C21.3329 63.0282 20.5114 63.9916 19.1809 63.7605L14.4149 62.9326L14.2151 64.086L13.2222 63.9135L13.422 62.7602L11.595 62.4428L11.7982 61.2696L13.6252 61.5869ZM23.0002 55.6352L22.5563 56.8049L12.9101 53.1338L14.1489 49.87C15.0081 47.6062 16.6477 47.0642 18.3527 47.7131C19.6339 48.2007 20.4187 49.1579 20.3707 50.5484L25.1842 49.8812L24.6686 51.2395L20.1226 51.8412C20.0969 51.9231 20.0665 52.0032 20.0343 52.0879L19.2322 54.2012L23.0002 55.6352ZM27.0933 42.9342C27.9338 43.8251 28.0549 45.2137 27.2834 46.5854C26.1855 48.5373 24.1256 48.9506 22.0534 47.782C19.9812 46.6133 19.2236 44.5878 20.2523 42.7589C21.0435 41.3521 22.7447 40.3427 25.256 41.759L25.695 42.0066L22.938 46.9084C24.4096 47.6747 25.6677 47.2782 26.3527 46.0604C26.8101 45.2471 26.8026 44.438 26.2485 43.778L27.0933 42.9342ZM24.7555 35.9096C25.6833 34.6892 26.7753 34.4689 27.8752 34.8381L27.4687 35.8726C26.9186 35.7132 26.2021 35.7061 25.5734 36.5331C24.9996 37.2879 24.9572 38.1433 25.4864 38.5467C25.9595 38.9073 26.4544 38.7646 27.1903 38.1714L28.1106 37.4272C29.2155 36.532 30.1657 36.4066 31.0237 37.0606C32.0862 37.8705 32.1263 39.442 31.0368 40.8752C30.0784 42.1358 28.8649 42.5742 27.6507 41.9973L28.1098 40.9269C28.8995 41.2625 29.6016 41.0304 30.1906 40.2556C30.8621 39.3724 30.8564 38.4802 30.3271 38.0768C29.9021 37.7529 29.3827 37.8198 28.7653 38.3321L27.7434 39.1764C26.6181 40.1069 25.6642 40.1787 24.8143 39.5308C23.7719 38.7362 23.7666 37.2104 24.7555 35.9096ZM35.4955 30.2096C37.1794 31.9198 37.2926 34.0471 35.8 35.5207C34.3073 36.9943 32.1848 36.8508 30.5009 35.1405C28.8028 33.4159 28.6896 31.2887 30.1823 29.8151C31.6749 28.3414 33.7975 28.485 35.4955 30.2096ZM32.556 24.2275L33.479 23.4767L39.9858 31.4969L39.0628 32.2477L32.556 24.2275ZM42.9413 28.0513C43.6813 27.5618 44.2396 26.3942 43.4397 25.1818L40.9178 21.3593L41.91 20.7029L46.1761 27.1692L45.1839 27.8256L44.4618 26.731L44.3945 26.7755C44.5251 27.6325 44.2304 28.5773 43.2551 29.2225C42.0443 30.0235 40.6476 29.8105 39.5589 28.1602L36.8481 24.0514L37.8403 23.3951L40.5066 27.4365C41.1288 28.3795 42.1173 28.5964 42.9413 28.0513ZM45.534 18.859L47.0089 18.1122L47.4636 19.0128L45.9887 19.7595L48.0259 23.794C48.4806 24.6945 49.003 24.6109 49.4707 24.3742C49.6788 24.2688 49.8013 24.1709 49.8827 24.1059L49.9005 24.0917L49.9061 24.0872L49.911 24.0834L50.6089 24.9286C50.4923 25.0555 50.2768 25.2551 49.8811 25.4554C48.9818 25.9107 47.7195 25.8262 47.1102 24.6194L44.9275 20.2968L43.8843 20.825L43.4296 19.9245L44.4728 19.3963L43.6361 17.7393L44.6973 17.202L45.534 18.859ZM52.6521 24.0851L51.5559 24.5465L48.5567 17.4021L49.6529 16.9407L52.6521 24.0851ZM48.6142 15.9767C49.0416 15.7969 49.254 15.3134 49.0822 14.9041C48.9104 14.4947 48.4168 14.3084 47.9894 14.4883C47.5621 14.6682 47.3496 15.1517 47.5215 15.561C47.6933 15.9703 48.1869 16.1566 48.6142 15.9767ZM57.0558 22.6939C59.0605 22.0809 59.9449 20.1434 59.2444 17.8465C58.5381 15.5302 56.7238 14.4179 54.719 15.0308C52.7143 15.6438 51.8299 17.5813 52.5362 19.8976C53.2367 22.1945 55.051 23.3069 57.0558 22.6939ZM61.8661 16.5299C61.6658 15.1926 62.3793 14.3099 63.5055 14.1408C64.5968 13.9769 65.3664 14.5909 65.5465 15.7934L66.264 20.5836L67.44 20.407L66.7106 15.537C66.4176 13.581 65.2356 12.7993 63.6859 13.0321C62.5298 13.2057 61.89 13.8324 61.6478 14.6647L61.5482 14.6797L61.3688 13.4821L60.2327 13.6528L61.3807 21.317L62.5566 21.1404L61.8661 16.5299Z" fill="#1515D6"/>
</svg>
