<svg width="47" height="47" viewBox="0 0 47 47" fill="none" xmlns="http://www.w3.org/2000/svg">
<path d="M46.9809 11.9957C46.9809 10.5504 46.859 9.11094 46.5139 7.70383C45.8941 5.14079 44.4327 3.18288 42.2458 1.74493C41.1208 1.01053 39.8827 0.559611 38.5667 0.321666C37.5561 0.144849 36.5332 0.04761 35.5074 0.0308447C35.431 0.0235007 35.3473 0.00734398 35.2621 0H11.7173C11.4192 0.0235007 11.121 0.0381887 10.8229 0.0528767C9.36152 0.136598 7.90897 0.289353 6.53133 0.840151C3.91557 1.87271 2.02534 3.67787 0.923815 6.2791C0.541952 7.15891 0.349552 8.0916 0.212962 9.04044C0.0984032 9.80568 0.0367176 10.5783 0.014687 11.3509C0.014687 11.4125 0 11.4728 0 11.5345V35.4714L0.0455298 36.2984C0.145402 37.8979 0.35102 39.4812 1.02516 40.95C2.29558 43.7275 4.42961 45.5547 7.35968 46.4345C8.17774 46.6871 9.03547 46.8017 9.89172 46.8781C10.9786 46.9853 12.0639 47 13.1508 47H34.7525C35.7776 47 36.8028 46.931 37.8279 46.8017C39.4421 46.5946 40.9563 46.1202 42.3266 45.2183C43.9486 44.1675 45.2276 42.6648 46.0057 40.8957C46.3729 40.0688 46.58 39.1904 46.7327 38.3018C46.9545 36.9784 47 35.6389 47 34.3008C46.9927 26.8643 47 19.4292 46.9927 11.9927L46.9809 11.9957ZM34.4044 19.8052V30.9901C34.4044 31.8082 34.2898 32.6117 33.9227 33.3534C33.3572 34.5079 32.4393 35.2349 31.207 35.5875C30.5244 35.7831 29.8207 35.896 29.1112 35.9238C28.2189 35.9766 27.3384 35.6993 26.6372 35.1449C25.9361 34.5905 25.4632 33.7976 25.3087 32.9172C25.1672 32.125 25.2895 31.3083 25.657 30.5924C26.0245 29.8765 26.6167 29.3011 27.3429 28.9544C27.97 28.6489 28.6515 28.4653 29.3315 28.3272C30.0732 28.1671 30.8149 28.0217 31.5492 27.8528C32.0927 27.7309 32.4437 27.4019 32.5509 26.8422C32.5817 26.7203 32.5891 26.5896 32.5891 26.4677V15.8042C32.5864 15.6826 32.5687 15.5617 32.5362 15.4444C32.4598 15.1462 32.2454 14.97 31.9399 14.9847C31.6256 14.9993 31.3201 15.0537 31.0146 15.1154C29.5224 15.4062 28.0317 15.7044 26.5468 16.0099L19.3032 17.4713C19.2723 17.4787 19.2341 17.4948 19.2033 17.4948C18.6599 17.6476 18.469 17.8929 18.4455 18.4584C18.4381 18.5421 18.4455 18.6273 18.4455 18.711C18.4381 23.8062 18.4455 28.9015 18.4381 33.9953C18.4381 34.8222 18.3456 35.633 18.0181 36.3968C17.4746 37.6511 16.5112 38.4399 15.2114 38.8144C14.5242 39.0144 13.8147 39.1274 13.0994 39.1508C11.2253 39.2198 9.66407 37.9728 9.3439 36.1294C9.06778 34.5387 9.79479 32.8246 11.5998 32.0594C12.3033 31.7686 13.0303 31.6085 13.772 31.4557L15.4552 31.112C16.2042 30.9519 16.5949 30.4775 16.6331 29.7123V29.4215V12.025C16.6331 11.7797 16.6639 11.5359 16.7168 11.298C16.8548 10.7398 17.2529 10.4182 17.7875 10.2874C18.2854 10.1567 18.7979 10.0657 19.3017 9.95844C20.7396 9.66761 22.1701 9.37679 23.6079 9.09332L28.0522 8.19001C29.3682 7.93003 30.6754 7.66271 31.9913 7.40273C32.4202 7.31901 32.8564 7.22648 33.2911 7.19563C33.8948 7.14275 34.3163 7.52464 34.378 8.13713C34.3926 8.28254 34.4015 8.42795 34.4015 8.57336V19.7964L34.4044 19.8052Z" fill="black"/>
</svg>
