<svg width="47" height="47" viewBox="0 0 47 47" fill="none" xmlns="http://www.w3.org/2000/svg">
<path d="M23.5 0C10.5202 0 0 10.5202 0 23.5C0 36.4798 10.5202 47 23.5 47C36.4798 47 47 36.4798 47 23.5C47 10.5202 36.4798 0 23.5 0ZM30.4795 23.5C30.4795 22.1196 30.0702 20.7702 29.3032 19.6224C28.5363 18.4746 27.4463 17.58 26.1709 17.0518C24.8956 16.5235 23.4923 16.3853 22.1384 16.6546C20.7845 16.9239 19.5408 17.5886 18.5647 18.5647C17.5886 19.5408 16.9239 20.7845 16.6546 22.1384C16.3853 23.4923 16.5235 24.8956 17.0518 26.1709C17.58 27.4463 18.4746 28.5363 19.6224 29.3032C20.7702 30.0702 22.1196 30.4795 23.5 30.4795V34.4667C21.331 34.4667 19.2107 33.8235 17.4072 32.6185C15.6038 31.4134 14.1982 29.7007 13.3681 27.6968C12.5381 25.6929 12.3209 23.4878 12.7441 21.3605C13.1672 19.2332 14.2117 17.2791 15.7454 15.7454C17.2791 14.2117 19.2332 13.1672 21.3605 12.7441C23.4878 12.3209 25.6929 12.5381 27.6968 13.3681C29.7007 14.1982 31.4134 15.6038 32.6185 17.4072C33.8235 19.2107 34.4667 21.331 34.4667 23.5H30.4795ZM37.2083 23.5C37.2083 20.7887 36.4044 18.1384 34.8981 15.8841C33.3918 13.6297 31.2508 11.8727 28.746 10.8352C26.2411 9.7976 23.4848 9.52613 20.8256 10.0551C18.1665 10.584 15.7239 11.8896 13.8067 13.8067C11.8896 15.7239 10.584 18.1665 10.0551 20.8256C9.52613 23.4848 9.7976 26.2411 10.8352 28.746C11.8727 31.2508 13.6297 33.3918 15.8841 34.8981C18.1384 36.4044 20.7887 37.2083 23.5 37.2083V41.7771C18.6526 41.7771 14.0037 39.8515 10.5761 36.4239C7.1485 32.9963 5.22288 28.3474 5.22288 23.5C5.22288 18.6526 7.1485 14.0037 10.5761 10.5761C14.0037 7.1485 18.6526 5.22288 23.5 5.22288C25.9002 5.22288 28.2769 5.69563 30.4944 6.61414C32.7118 7.53265 34.7267 8.87893 36.4239 10.5761C38.1211 12.2733 39.4674 14.2882 40.3859 16.5056C41.3044 18.7231 41.7771 21.0998 41.7771 23.5H37.2083Z" fill="black"/>
</svg>
