<svg width="47" height="47" viewBox="0 0 47 47" fill="none" xmlns="http://www.w3.org/2000/svg">
<path d="M23.5012 0C10.5756 0 0 10.5756 0 23.5012C0 36.4244 10.5756 47 23.5012 47C36.4244 47 47 36.4244 47 23.5012C47 10.5756 36.542 0 23.5012 0ZM34.3097 33.9569C33.8416 34.6602 33.0183 34.8978 32.3103 34.4297C26.7849 31.0189 19.8529 30.3132 11.6271 32.1927C10.8085 32.4326 10.1028 31.8446 9.86763 31.1365C9.63005 30.3132 10.2181 29.6123 10.9261 29.3747C19.8529 27.3753 27.6105 28.2009 33.7193 31.9622C34.5426 32.3127 34.6602 33.2512 34.3097 33.9569ZM37.1324 27.4953C36.542 28.3162 35.4858 28.669 34.6602 28.081C28.3162 24.2092 18.6838 23.0284 11.2813 25.3806C10.3451 25.6182 9.28192 25.1454 9.04905 24.2092C8.81147 23.2636 9.28427 22.2051 10.2228 21.9699C18.7991 19.3871 29.3771 20.6808 36.6596 25.1477C37.3652 25.4982 37.7181 26.672 37.1324 27.4953ZM37.3652 20.9114C29.8452 16.4492 17.2725 15.9787 10.1028 18.2157C9.55761 18.3728 8.97281 18.3138 8.46993 18.051C7.96705 17.7882 7.58476 17.3417 7.40248 16.8044C7.24258 16.2585 7.29992 15.6719 7.56252 15.1673C7.82512 14.6627 8.27263 14.2792 8.81147 14.0969C17.1548 11.6294 30.9037 12.0975 39.5999 17.2748C40.656 17.8605 41.0089 19.2719 40.4208 20.328C39.8327 21.1513 38.4238 21.4994 37.3652 20.9114Z" fill="black"/>
</svg>
