<svg width="48" height="48" viewBox="0 0 48 48" fill="none" xmlns="http://www.w3.org/2000/svg">
<path d="M27.876 8.14821C34.3905 7.57821 40.8975 4.19571 47.4135 7.06971V46.8512C38.43 42.8747 29.445 50.8277 20.46 46.8512V39.8597C13.836 40.3982 7.21055 43.8272 0.586548 40.9382V1.15671C9.68855 5.13321 18.783 -2.81979 27.876 1.15671V8.14821ZM32.8365 29.7422C33.624 29.5697 34.407 29.3897 35.1885 29.2187C38.6565 28.4612 40.041 26.4152 40.041 23.1962V18.0002C40.041 14.8277 39.1485 12.8207 34.9305 13.7267C32.5785 14.2427 30.2265 14.8127 27.876 15.0242V40.9547C29.532 40.8122 31.1805 40.4852 32.8365 40.1252V29.7422ZM32.8365 25.5242V18.2042L33.774 17.9927C34.9305 17.7347 35.04 18.3047 35.04 19.2512V23.5712C35.04 24.3767 34.9305 25.0637 33.774 25.3127L32.8365 25.5242ZM13.062 34.2182V23.1317L14.1105 22.9052C15.1185 22.6877 15.4065 22.9367 15.414 24.1547V31.7252C15.414 32.8757 15.6015 33.3887 15.8595 33.6167C17.5155 33.2732 19.1715 32.9672 20.82 32.8592V32.6867C20.64 32.3882 20.4135 31.9202 20.4135 30.7952V21.9752C20.4135 20.0537 19.0695 19.3187 18.2895 19.1792C19.218 18.6317 20.484 17.5772 20.484 15.4217V11.2742C20.484 8.49171 18.96 7.02471 15.9375 7.66371C13.32 8.20971 10.71 8.87571 8.10155 9.10221V35.0402C9.75005 34.8977 11.406 34.5782 13.062 34.2182ZM13.062 18.8522V12.2957C13.4385 12.2102 13.8045 12.1322 14.1795 12.0452C15.1875 11.8277 15.414 12.1307 15.414 13.2497V16.7657C15.414 17.9837 15.0405 18.4142 14.0325 18.6317L13.062 18.8522Z" fill="#1515D6"/>
</svg>
